<?xml version="1.0" encoding="UTF-8" standalone="no" ?>
<!DOCTYPE svg PUBLIC "-//W3C//DTD SVG 1.1//EN" "http://www.w3.org/Graphics/SVG/1.1/DTD/svg11.dtd">
<svg xmlns="http://www.w3.org/2000/svg" xmlns:xlink="http://www.w3.org/1999/xlink" version="1.1" width="2080" height="2080" viewBox="0 0 1080 1080" xml:space="preserve">
<desc>Created with Fabric.js 5.2.4</desc>
<defs>
</defs>
<g transform="matrix(1 0 0 1 540 540)" id="321cfa72-63bd-43a1-a063-f09e610dce15"  >
<rect style="stroke: none; stroke-width: 1; stroke-dasharray: none; stroke-linecap: butt; stroke-dashoffset: 0; stroke-linejoin: miter; stroke-miterlimit: 4; fill: rgb(255,255,255); fill-rule: nonzero; opacity: 1; visibility: hidden;" vector-effect="non-scaling-stroke"  x="-540" y="-540" rx="0" ry="0" width="1080" height="1080" />
</g>
<g transform="matrix(1 0 0 1 540 540)" id="311d2513-f2cb-4c03-90de-632f0c3c00b3"  >
</g>
<g transform="matrix(1.26 0.21 -0.21 1.26 401.44 430.12)"  >
<g style="" vector-effect="non-scaling-stroke"   >
		<g transform="matrix(1 0 0 1 0 0)"  >
<path style="stroke: none; stroke-width: 1; stroke-dasharray: none; stroke-linecap: butt; stroke-dashoffset: 0; stroke-linejoin: miter; stroke-miterlimit: 4; fill: rgb(144,211,241); fill-rule: nonzero; opacity: 1;" vector-effect="non-scaling-stroke"  transform=" translate(-123.12, -250.59)" d="M 0 0 C 5.4883157 1.99575116 10.76479337 4.42068898 16 7 C 17.00933594 7.49628906 18.01867187 7.99257812 19.05859375 8.50390625 C 26.93103741 12.60204359 34.22945698 17.59502209 40.8203125 23.546875 C 41.74585938 24.37703125 42.67140625 25.2071875 43.625 26.0625 C 44.44226563 26.83722656 45.25953125 27.61195312 46.1015625 28.41015625 C 53.12968397 32.26520401 63.15072278 27.91424298 70.5 26.1875 C 83.59244347 23.20302838 96.69767264 20.82707778 110 19 C 110.8132373 18.88672363 111.62647461 18.77344727 112.46435547 18.65673828 C 168.4869407 11.17050302 229.32251213 15.85337199 275.93408203 50.59594727 C 293.67681479 64.17104007 307.8703264 80.66951428 319 100 C 319.65742188 101.12664062 320.31484375 102.25328125 320.9921875 103.4140625 C 329.27182075 118.00256291 334.7285244 133.81924874 338.89453125 150.01953125 C 339.2588111 151.34751612 339.62730869 152.67435117 340 154 C 340.18135498 154.69585205 340.36270996 155.3917041 340.54956055 156.10864258 C 342.31029522 161.8679228 345.08246466 164.09512407 350.1875 167.0625 C 351.54927323 167.91545388 352.90867412 168.77220751 354.265625 169.6328125 C 355.23918945 170.24237793 355.23918945 170.24237793 356.23242188 170.86425781 C 367.01572784 177.79297871 374.59788901 188.65480535 378.57421875 200.74609375 C 380.29805271 209.87134327 380.30670175 219.94147934 375.40625 228 C 374.71015625 228.99 374.71015625 228.99 374 230 C 372.9171875 231.5778125 372.9171875 231.5778125 371.8125 233.1875 C 354.17093987 250.82906013 327.32983671 254.11777399 303.5 254.3125 C 272.499989 254.1871829 242.12707924 247.25363331 213 237 C 212.00548828 236.65066406 211.01097656 236.30132812 209.98632812 235.94140625 C 194.32630349 230.37837863 179.13347757 223.85446159 164 217 C 161.37784412 223.49782063 161.37784412 223.49782063 158.8671875 230.0390625 C 153.53288234 243.94185785 145.26069276 255.35245886 135 266 C 134.11131712 267.07213752 133.23332646 268.15340901 132.375 269.25 C 129.21349437 272.91069072 125.71979922 275.91723062 122 279 C 121.19030762 279.67820801 121.19030762 279.67820801 120.36425781 280.37011719 C 97.82730008 299.17749672 97.82730008 299.17749672 87 299 C 79.62696867 298.14002379 74.19243352 295.68954557 69.25 290 C 63.63457701 282.51276934 63.83610934 274.63903077 63.4375 265.5625 C 63.37272461 264.17901367 63.37272461 264.17901367 63.30664062 262.76757812 C 63.20145069 260.51183837 63.09930893 258.25600501 63 256 C 59.27768552 259.33404584 56.97631003 263.00230974 54.5625 267.3125 C 54.16925537 268.01455566 53.77601074 268.71661133 53.37084961 269.43994141 C 49.60332832 276.3842441 47.09285937 283.38480581 45 291 C 44.75507813 291.86882812 44.51015625 292.73765625 44.2578125 293.6328125 C 40.85702076 307.74842753 42.5738717 322.7706499 49.4296875 335.55859375 C 60.808926 353.2501959 79.15231394 361.50386646 99 366 C 113.41516385 369.17696121 113.41516385 369.17696121 128 369 C 131.34141917 366.36602039 132.34562649 362.8817135 133.75 359 C 138.12666635 347.58111682 144.5572352 338.81112277 153 330 C 153.93779297 328.96746094 153.93779297 328.96746094 154.89453125 327.9140625 C 166.93145953 315.09156627 189.69553004 300.23786154 207.65625 298.78515625 C 212.65450322 299.11004271 216.15520185 300.70445873 220 304 C 222.78683868 307.90854125 223.74019649 311.49609676 224.625 316.1875 C 224.86476563 317.41855469 225.10453125 318.64960938 225.3515625 319.91796875 C 229.66335082 345.38210459 228.38190584 372.69123524 213.71484375 394.67578125 C 211.67448215 397.44119162 209.57777383 399.7346836 207 402 C 208.30629174 404.85675015 209.38733567 406.40578023 211.625 408.75 C 226.72055048 426.03384895 228.05818525 450.18428194 227 472 C 226.67525126 475.81025859 226.22070703 479.58861951 225.6875 483.375 C 225.51105957 484.64766724 225.51105957 484.64766724 225.33105469 485.94604492 C 224.35398102 492.22143177 223.24556693 498.75443307 218.625 503.375 C 212.6377544 507.08139014 208.8216378 507.21726189 202 506 C 199.1972876 505.19786476 196.55181296 504.14993667 193.875 503 C 193.14853271 502.69312256 192.42206543 502.38624512 191.67358398 502.07006836 C 165.50076856 490.65659449 144.88347074 471.5231039 134 445 C 132.46305434 440.69521606 132.46305434 440.69521606 130 437 C 123.32775083 436.59023267 117.41907114 437.82699682 110.9375 439.3125 C 95.90029977 442.58307075 80.73235104 445.14649594 65.3125 445.4375 C 64.62357666 445.45981689 63.93465332 445.48213379 63.22485352 445.50512695 C 59.90765688 445.48955326 58.22604298 445.16926271 55.54296875 443.16015625 C 54 441 54 441 54 438 C 53.31035156 438.01160156 52.62070313 438.02320313 51.91015625 438.03515625 C 45.84227348 438.09342124 40.01642604 437.78903948 34 437 C 33.896875 437.61875 33.79375 438.2375 33.6875 438.875 C 33 441 33 441 30 443 C 23.08472923 443.87538103 16.32983634 442.53675737 9.625 440.9375 C 8.67383301 440.71344482 7.72266602 440.48938965 6.74267578 440.25854492 C -38.78538654 429.13877038 -78.07657768 400.96853888 -102.625 360.875 C -123.65560974 325.04363916 -133.46752264 285.79558625 -133.375 244.4375 C -133.37445618 243.5172403 -133.37391235 242.59698059 -133.37335205 241.64883423 C -133.33393515 227.10226182 -132.49980185 213.17620889 -129 199 C -128.68651611 197.67597168 -128.68651611 197.67597168 -128.36669922 196.32519531 C -119.50330286 159.71638069 -99.83752968 129.93609528 -74.5078125 102.75390625 C -69.26361306 97.64205655 -69.26361306 97.64205655 -66.75 91.1875 C -68.631944 86.38854279 -71.62966336 82.85840888 -75 79 C -75.56589844 78.33871094 -76.13179687 77.67742187 -76.71484375 76.99609375 C -84.23956343 68.84568622 -94.17329101 62.86290194 -104 57.875 C -110.17253994 54.61854823 -114.31652909 50.36694182 -117.4375 44.125 C -118.9118367 35.93424053 -118.5270246 29.1425344 -114 22 C -108.60298386 16.10063041 -102.11829556 12.67302788 -94.9375 9.375 C -93.9276001 8.90280029 -92.9177002 8.43060059 -91.87719727 7.9440918 C -70.58599444 -1.84412867 -70.58599444 -1.84412867 -62 -1 C -60.5459375 0.2684375 -60.5459375 0.2684375 -59.0625 1.5625 C -56.24293629 4.36400098 -56.24293629 4.36400098 -52.875 3.8125 C -51.59625 3.544375 -50.3175 3.27625 -49 3 C -44.99874566 2.88955132 -41.00205088 2.94085639 -37 3 C -36.9175 2.236875 -36.835 1.47375 -36.75 0.6875 C -36 -2 -36 -2 -34.35546875 -3.81640625 C -25.49399989 -8.26918414 -9.03138112 -2.8817847 0 0 Z" stroke-linecap="round" />
</g>
		<g transform="matrix(1 0 0 1 45.41 0.1)"  >
<path style="stroke: none; stroke-width: 1; stroke-dasharray: none; stroke-linecap: butt; stroke-dashoffset: 0; stroke-linejoin: miter; stroke-miterlimit: 4; fill: rgb(1,2,2); fill-rule: nonzero; opacity: 1;" vector-effect="non-scaling-stroke"  transform=" translate(-177.09, -253.06)" d="M 0 0 C 8.65123102 2.07842717 16.60090936 5.45243878 24.5625 9.375 C 25.57183594 9.87128906 26.58117187 10.36757812 27.62109375 10.87890625 C 35.49353741 14.97704359 42.79195698 19.97002209 49.3828125 25.921875 C 50.30835938 26.75203125 51.23390625 27.5821875 52.1875 28.4375 C 53.00476563 29.21222656 53.82203125 29.98695312 54.6640625 30.78515625 C 61.69218397 34.64020401 71.71322278 30.28924298 79.0625 28.5625 C 92.15494347 25.57802838 105.26017264 23.20207778 118.5625 21.375 C 119.3757373 21.26172363 120.18897461 21.14844727 121.02685547 21.03173828 C 177.0494407 13.54550302 237.88501213 18.22837199 284.49658203 52.97094727 C 302.23931479 66.54604007 316.4328264 83.04451428 327.5625 102.375 C 328.21992188 103.50164062 328.87734375 104.62828125 329.5546875 105.7890625 C 337.83432075 120.37756291 343.2910244 136.19424874 347.45703125 152.39453125 C 347.8213111 153.72251612 348.18980869 155.04935117 348.5625 156.375 C 348.74385498 157.07085205 348.92520996 157.7667041 349.11206055 158.48364258 C 350.87279522 164.2429228 353.64496466 166.47012407 358.75 169.4375 C 360.11177323 170.29045388 361.47117412 171.14720751 362.828125 172.0078125 C 363.80168945 172.61737793 363.80168945 172.61737793 364.79492188 173.23925781 C 375.57822784 180.16797871 383.16038901 191.02980535 387.13671875 203.12109375 C 388.86055271 212.24634327 388.86920175 222.31647934 383.96875 230.375 C 383.27265625 231.365 383.27265625 231.365 382.5625 232.375 C 381.4796875 233.9528125 381.4796875 233.9528125 380.375 235.5625 C 362.73343987 253.20406013 335.89233671 256.49277399 312.0625 256.6875 C 281.062489 256.5621829 250.68957924 249.62863331 221.5625 239.375 C 220.56798828 239.02566406 219.57347656 238.67632812 218.54882812 238.31640625 C 202.88880349 232.75337863 187.69597757 226.22946159 172.5625 219.375 C 169.94034412 225.87282063 169.94034412 225.87282063 167.4296875 232.4140625 C 162.09538234 246.31685785 153.82319276 257.72745886 143.5625 268.375 C 142.67381712 269.44713752 141.79582646 270.52840901 140.9375 271.625 C 137.77599437 275.28569072 134.28229922 278.29223062 130.5625 281.375 C 129.75280762 282.05320801 129.75280762 282.05320801 128.92675781 282.74511719 C 106.38980008 301.55249672 106.38980008 301.55249672 95.5625 301.375 C 88.18946867 300.51502379 82.75493352 298.06454557 77.8125 292.375 C 72.19707701 284.88776934 72.39860934 277.01403077 72 267.9375 C 71.93522461 266.55401367 71.93522461 266.55401367 71.86914062 265.14257812 C 71.76395069 262.88683837 71.66180893 260.63100501 71.5625 258.375 C 67.84018552 261.70904584 65.53881003 265.37730974 63.125 269.6875 C 62.73175537 270.38955566 62.33851074 271.09161133 61.93334961 271.81494141 C 58.16582832 278.7592441 55.65535937 285.75980581 53.5625 293.375 C 53.19511719 294.67824219 53.19511719 294.67824219 52.8203125 296.0078125 C 49.41952076 310.12342753 51.1363717 325.1456499 57.9921875 337.93359375 C 69.371426 355.6251959 87.71481394 363.87886646 107.5625 368.375 C 121.97766385 371.55196121 121.97766385 371.55196121 136.5625 371.375 C 139.90391917 368.74102039 140.90812649 365.2567135 142.3125 361.375 C 146.68916635 349.95611682 153.1197352 341.18612277 161.5625 332.375 C 162.18769531 331.68664062 162.81289063 330.99828125 163.45703125 330.2890625 C 175.49395953 317.46656627 198.25803004 302.61286154 216.21875 301.16015625 C 221.21700322 301.48504271 224.71770185 303.07945873 228.5625 306.375 C 231.34933868 310.28354125 232.30269649 313.87109676 233.1875 318.5625 C 233.42726563 319.79355469 233.66703125 321.02460938 233.9140625 322.29296875 C 238.22585082 347.75710459 236.94440584 375.06623524 222.27734375 397.05078125 C 220.23698215 399.81619162 218.14027383 402.1096836 215.5625 404.375 C 216.86879174 407.23175015 217.94983567 408.78078023 220.1875 411.125 C 235.28305048 428.40884895 236.62068525 452.55928194 235.5625 474.375 C 235.23775126 478.18525859 234.78320703 481.96361951 234.25 485.75 C 234.07355957 487.02266724 234.07355957 487.02266724 233.89355469 488.32104492 C 232.91648102 494.59643177 231.80806693 501.12943307 227.1875 505.75 C 221.2002544 509.45639014 217.3841378 509.59226189 210.5625 508.375 C 207.7597876 507.57286476 205.11431296 506.52493667 202.4375 505.375 C 201.71103271 505.06812256 200.98456543 504.76124512 200.23608398 504.44506836 C 174.06326856 493.03159449 153.44597074 473.8981039 142.5625 447.375 C 141.02555434 443.07021606 141.02555434 443.07021606 138.5625 439.375 C 131.89025083 438.96523267 125.98157114 440.20199682 119.5 441.6875 C 104.46279977 444.95807075 89.29485104 447.52149594 73.875 447.8125 C 73.18607666 447.83481689 72.49715332 447.85713379 71.78735352 447.88012695 C 68.49959193 447.86469145 66.79919109 447.55147017 64.13671875 445.56640625 C 61.83702399 442.36509418 62.01366898 440.21681717 62.5625 436.375 C 64.70909616 433.53476493 65.97895104 432.50497582 69.48144531 431.72485352 C 70.60647461 431.65194092 71.73150391 431.57902832 72.890625 431.50390625 C 74.15447021 431.407146 75.41831543 431.31038574 76.72045898 431.21069336 C 77.38826385 431.1665329 78.05606873 431.12237244 78.74411011 431.07687378 C 94.80649174 429.99454649 110.29609385 427.32931015 125.87890625 423.24609375 C 133.06499801 421.54673165 140.20083996 421.13623863 146.7265625 425.01171875 C 153.47996211 430.02647718 156.46615776 436.00817262 159.37036133 443.73242188 C 163.23198787 453.96885775 168.92382352 461.6083725 176.5625 469.375 C 177.57763672 470.40947266 177.57763672 470.40947266 178.61328125 471.46484375 C 189.38212847 481.70640278 202.96758721 487.81912894 216.5625 493.375 C 218.34774829 483.54019469 218.82717836 473.71614317 218.91699219 463.73513794 C 218.93703447 461.73398148 218.97610415 459.73304428 219.015625 457.73217773 C 219.04280482 444.27222185 215.72492556 430.31246415 206.46875 420.0546875 C 205.10623228 418.71685307 203.71812367 417.40417395 202.296875 416.12890625 C 199.00999152 412.80500832 198.20437554 409.7399315 198 405.125 C 198.11414346 398.51345944 201.0093421 395.7904616 205.5625 391.375 C 213.84909415 381.95298309 218.80571536 369.47748465 218.828125 356.9296875 C 218.83099518 355.89208786 218.83099518 355.89208786 218.83392334 354.83352661 C 218.83527623 353.37631871 218.83164281 351.91909838 218.82324219 350.46191406 C 218.81262823 348.27640358 218.82311652 346.09173366 218.8359375 343.90625 C 218.84331904 335.22186348 218.19325198 326.9355192 216.5625 318.375 C 195.77068701 323.19788691 174.84172835 337.72276598 163.3125 355.5625 C 159.82946011 361.47736049 157.36473583 367.51672055 155.08203125 373.96484375 C 152.586637 379.5650473 149.16927246 383.64349547 143.5625 386.375 C 126.23869189 392.1228064 102.07561977 385.11293038 85.5625 379.375 C 84.94600586 379.02244141 84.32951172 378.66988281 83.69433594 378.30664062 C 80.99234578 377.12583503 78.98890574 377.19514914 76.046875 377.28515625 C 74.42930298 377.31875244 74.42930298 377.31875244 72.77905273 377.35302734 C 71.63509033 377.38090332 70.49112793 377.4087793 69.3125 377.4375 C 42.41525196 377.72169734 19.09064394 369.92805061 -1.4375 352.375 C -2.0253125 351.9315625 -2.613125 351.488125 -3.21875 351.03125 C -19.35148931 338.55120638 -30.56190634 316.28905815 -33.4375 296.375 C -34.425154 280.636296 -34.82890901 265.01884593 -28.4375 250.375 C -28.14810547 249.70227051 -27.85871094 249.02954102 -27.56054688 248.33642578 C -20.98118614 233.44206615 -11.69384247 221.04336086 -0.4375 209.375 C 0.26761719 208.60671875 0.97273438 207.8384375 1.69921875 207.046875 C 10.24406532 197.99747558 20.65497473 190.33872486 31.5625 184.375 C 30.29600178 180.57550535 29.06194206 180.26852331 25.625 178.375 C 22.24546813 176.50774786 20.74188545 175.64407817 18.5625 172.375 C 18.6940201 168.69243715 18.82920443 166.27751763 21.1875 163.375 C 24.64161597 161.92063538 26.92152218 162.60072567 30.5625 163.375 C 55.85025431 176.01887715 72.59470437 200.71668613 81.71826172 226.80371094 C 85.74902289 239.08016456 88.35564631 251.85257396 88.76171875 264.77734375 C 88.80872925 266.19430542 88.80872925 266.19430542 88.85668945 267.63989258 C 88.90968599 269.51558585 88.94402873 271.391919 88.95776367 273.26831055 C 89.05543172 277.15651558 89.14348974 279.6739243 91.1640625 283.0546875 C 94.72191714 285.01324592 96.69368729 284.45150332 100.5625 283.375 C 102.96603946 282.01337491 105.00735241 280.71042862 107.1875 279.0625 C 107.78651123 278.62172119 108.38552246 278.18094238 109.00268555 277.72680664 C 115.08987776 273.15082919 120.66325915 268.05713183 126.12548828 262.76074219 C 127.41959695 261.51280457 128.73772657 260.28989253 130.05859375 259.0703125 C 146.62869925 243.3904553 157.07764666 221.20410329 157.94995117 198.4362793 C 158.48518829 171.04519347 145.66317841 145.02451502 127.75 124.88671875 C 125.11990553 121.86680671 124.63154217 120.99637955 124.1875 117 C 124.5625 113.375 124.5625 113.375 126.6875 110.875 C 129.5625 109.375 129.5625 109.375 132.4375 109.1875 C 139.57240729 111.89876477 144.21312313 119.22051137 148.4375 125.3125 C 148.94708252 126.04178711 149.45666504 126.77107422 149.98168945 127.52246094 C 153.46895038 132.593849 156.70861663 137.77478822 159.75 143.125 C 160.12431152 143.77976318 160.49862305 144.43452637 160.88427734 145.10913086 C 162.75408442 148.50119231 164.06954602 151.51965846 164.5625 155.375 C 165.1299292 155.35542236 165.6973584 155.33584473 166.28198242 155.31567383 C 173.602233 155.17772115 180.64048779 156.00081379 187.875 157.0625 C 189.10613525 157.24256592 190.33727051 157.42263184 191.60571289 157.6081543 C 206.47616149 159.86762857 220.79253332 163.33146349 235.125 167.875 C 236.01243896 168.14739502 236.89987793 168.41979004 237.81420898 168.70043945 C 242.75694341 170.34158739 245.79054093 171.7001285 248.5625 176.375 C 249.125 178.875 249.125 178.875 248.5625 181.375 C 246.5625 184.25 246.5625 184.25 243.5625 186.375 C 238.42842331 186.5616937 234.5069055 185.00841021 229.75 183.1875 C 210.89971907 176.21188802 190.35509299 173.40828499 170.5625 170.375 C 170.7790625 171.16519531 170.995625 171.95539063 171.21875 172.76953125 C 173.76757342 183.09462613 173.86696438 192.79768197 173.5625 203.375 C 174.40554688 203.54322266 174.40554688 203.54322266 175.265625 203.71484375 C 181.81208565 205.25105307 187.67967214 207.68167616 193.75 210.5 C 217.03296875 221.23684265 241.58541174 229.69269589 266.625 235.25 C 267.47908447 235.44110352 268.33316895 235.63220703 269.21313477 235.82910156 C 283.25268125 238.76627863 297.18152969 239.69168211 311.48828125 239.58081055 C 313.98447549 239.56214881 316.48030464 239.56030452 318.9765625 239.56054688 C 320.57552405 239.5556438 322.17448311 239.54982085 323.7734375 239.54296875 C 324.51395355 239.54185593 325.2544696 239.5407431 326.01742554 239.53959656 C 329.1325216 239.510612 331.58464317 239.36761894 334.5625 238.375 C 316.3840414 224.9474453 297.12988059 213.24721692 276.82177734 203.31835938 C 272.06585943 200.9416828 268.39781151 199.07939955 265.5625 194.375 C 265 191.875 265 191.875 265.5625 189.375 C 267.625 186.5 267.625 186.5 270.5625 184.375 C 277.18834199 184.46904421 282.32584854 187.48016372 288.0625 190.5625 C 289.06643799 191.09568848 290.07037598 191.62887695 291.10473633 192.17822266 C 311.96720834 203.39698244 332.25634463 216.0369463 350.62158203 231.04394531 C 352.58694592 232.61867526 352.58694592 232.61867526 355.5625 232.6875 C 362.2595841 229.75752571 368.10803934 226.52516135 370.96484375 219.49609375 C 373.12123842 211.84300679 371.26690111 206.24812343 367.5078125 199.359375 C 362.05123994 190.98824761 354.82390843 185.70759448 346.47924805 180.55566406 C 337.02027632 174.64495197 334.60205198 168.92318361 332.08496094 158.37353516 C 324.81263253 128.23288124 311.08795359 101.71828997 289.5625 79.375 C 288.59957031 78.31732422 288.59957031 78.31732422 287.6171875 77.23828125 C 267.33580193 55.59602349 237.99732751 44.10029904 209.5625 38.375 C 208.40878906 38.14039063 207.25507813 37.90578125 206.06640625 37.6640625 C 193.12220625 35.29181867 179.93344881 35.16804501 166.8125 35.1875 C 166.0523761 35.18810425 165.2922522 35.1887085 164.50909424 35.18933105 C 139.20860037 35.24347518 114.27445861 37.42632995 89.59375 43.19140625 C 88.91132736 43.35005661 88.22890472 43.50870697 87.52580261 43.67216492 C 84.19108623 44.45157192 80.86553826 45.25315279 77.54418945 46.08862305 C 57.73250428 50.86922633 57.73250428 50.86922633 49.71899414 47.00317383 C 47.15199148 45.28854118 44.87784171 43.41640339 42.5625 41.375 C 28.07497321 29.02642313 10.89791444 18.21157309 -8.3359375 15.703125 C -9.2235376 15.58533691 -10.1111377 15.46754883 -11.02563477 15.34619141 C -12.81263945 15.11911258 -14.60236567 14.9123317 -16.39428711 14.72802734 C -20.73429982 14.18976364 -22.96945439 13.73810799 -26.50390625 10.99609375 C -28.4375 8.375 -28.4375 8.375 -29.0625 4.8125 C -28.4375 1.375 -28.4375 1.375 -26.3203125 -0.83984375 C -19.31056508 -5.1805681 -7.75720509 -1.72045574 0 0 Z" stroke-linecap="round" />
</g>
		<g transform="matrix(1 0 0 1 -84.08 -5.73)"  >
<path style="stroke: none; stroke-width: 1; stroke-dasharray: none; stroke-linecap: butt; stroke-dashoffset: 0; stroke-linejoin: miter; stroke-miterlimit: 4; fill: rgb(88,193,230); fill-rule: nonzero; opacity: 1;" vector-effect="non-scaling-stroke"  transform=" translate(-101.04, -245.85)" d="M 0 0 C 2.9375 2.0625 2.9375 2.0625 5 5 C 5 8.39964044 4.89439609 10.76867387 2.859375 13.5703125 C 0.19784307 15.61678453 -2.54022001 16.28842034 -5.75 17.25 C -23.68654474 22.85873249 -23.68654474 22.85873249 -39 33 C -39.62865864 37.07298958 -39.62865864 37.07298958 -39 41 C -37.47448209 42.43452135 -37.47448209 42.43452135 -35.44921875 43.4765625 C -34.7214624 43.89679687 -33.99370605 44.31703125 -33.24389648 44.75 C -32.13316772 45.36875 -32.13316772 45.36875 -31 46 C -29.71096146 46.75865373 -28.42440343 47.52154131 -27.140625 48.2890625 C -26.50584229 48.66740234 -25.87105957 49.04574219 -25.21704102 49.43554688 C -11.69789652 57.61045962 5.9133757 70.446668 11 86 C 11.89811777 92.51135386 12.01736528 99.18087092 8.59375 104.9765625 C 5.63775919 108.72951162 2.20738596 112.01270302 -1.234375 115.3125 C -10.65501714 124.46702231 -13.8561208 130.74190008 -14.203125 143.8984375 C -14.58313904 174.94247713 -9.18456 206.20828766 13.21484375 229.30078125 C 20.70239587 236.63904147 20.70239587 236.63904147 29 243 C 28.75765625 243.48726562 28.5153125 243.97453125 28.265625 244.4765625 C 27.09424907 246.95447312 26.03970533 249.46396201 25 252 C 24.6184375 252.88945312 24.236875 253.77890625 23.84375 254.6953125 C 20.77078997 263.27765086 20.60584173 271.57570294 20.5625 280.625 C 20.55250977 281.85186523 20.54251953 283.07873047 20.53222656 284.34277344 C 20.75232595 307.74248267 31.42604487 330.59809285 48 347 C 67.14098948 364.62549434 92.01406669 375.54139179 118.19897461 374.83300781 C 136.02137561 374.40119592 136.02137561 374.40119592 144.79296875 378.625 C 149.01539462 380.43534581 153.26011461 381.33568978 157.75 382.25 C 158.53109131 382.41274414 159.31218262 382.57548828 160.11694336 382.74316406 C 168.25634318 384.36742307 176.32768906 385.18921384 184.625 385.25 C 185.3365625 385.270625 186.048125 385.29125 186.78125 385.3125 C 193.00201036 385.35807334 197.48688394 383.62067428 202.75 380.2265625 C 205.51758946 377.4878021 206.58752331 374.99447151 208 371.375 C 208.50969428 370.11766701 209.02142796 368.8611589 209.53515625 367.60546875 C 210.26025391 365.82076172 210.26025391 365.82076172 211 364 C 221.32616633 340.59618102 241.96129172 326.36711812 265 317 C 267.9921875 316.28515625 267.9921875 316.28515625 270 316 C 273.3870349 325.03209306 273.27102421 334.34817422 273.35009766 343.87866211 C 273.36655819 345.32218662 273.39371609 346.76563302 273.43212891 348.20874023 C 273.8366436 363.57502223 270.61798478 378.60576292 259.875 390.31640625 C 258.48551866 391.70340638 257.07470691 393.06960577 255.63671875 394.40625 C 252.78711632 397.18104186 252.78776632 399.38710797 252.6875 403.25 C 252.77661765 409.48823547 254.5025049 412.41216997 258.8359375 416.90234375 C 270.11520576 428.85145361 273.36033464 442.07536011 273.26074219 458.07910156 C 273.25013167 460.09992259 273.26062272 462.11983295 273.2734375 464.140625 C 273.23156618 485.53686763 273.23156618 485.53686763 270 492 C 247.83397252 485.66684929 227.49819748 471.49412319 215.76953125 451.4765625 C 213.87887845 447.76203492 212.3469001 444.01842872 210.875 440.125 C 208.09968091 432.78738578 205.15659022 427.63271251 198.3125 423.5625 C 188.98972571 419.56205581 179.67324707 422.65218093 170.31347656 425.00292969 C 158.99234923 427.82029693 147.58715932 429.56822775 135.9609375 430.51953125 C 134.95667725 430.60178955 133.95241699 430.68404785 132.91772461 430.76879883 C 130.96909632 430.91997037 129.01931608 431.0571179 127.06860352 431.1784668 C 126.18873779 431.24332275 125.30887207 431.30817871 124.40234375 431.375 C 123.62366943 431.42398437 122.84499512 431.47296875 122.04272461 431.5234375 C 119.52516632 432.1107775 118.59141354 432.99456765 117 435 C 116.28552357 437.10332891 116.28552357 437.10332891 116 439 C 109.23405981 439.11381955 102.71162938 438.88021369 96 438 C 95.896875 438.61875 95.79375 439.2375 95.6875 439.875 C 95 442 95 442 92 444 C 85.08472923 444.87538103 78.32983634 443.53675737 71.625 441.9375 C 70.67383301 441.71344482 69.72266602 441.48938965 68.74267578 441.25854492 C 23.21461346 430.13877038 -16.07657768 401.96853888 -40.625 361.875 C -61.65560974 326.04363916 -71.46752264 286.79558625 -71.375 245.4375 C -71.37445618 244.5172403 -71.37391235 243.59698059 -71.37335205 242.64883423 C -71.33393515 228.10226182 -70.49980185 214.17620889 -67 200 C -66.68651611 198.67597168 -66.68651611 198.67597168 -66.36669922 197.32519531 C -57.50330286 160.71638069 -37.83752968 130.93609528 -12.5078125 103.75390625 C -7.26361306 98.64205655 -7.26361306 98.64205655 -4.75 92.1875 C -6.631944 87.38854279 -9.62966336 83.85840888 -13 80 C -13.56589844 79.33871094 -14.13179687 78.67742187 -14.71484375 77.99609375 C -22.23956343 69.84568622 -32.17329101 63.86290194 -42 58.875 C -48.17253994 55.61854823 -52.31652909 51.36694182 -55.4375 45.125 C -56.9118367 36.93424053 -56.5270246 30.1425344 -52 23 C -46.60298386 17.10063041 -40.11829556 13.67302788 -32.9375 10.375 C -31.9276001 9.90280029 -30.9177002 9.43060059 -29.87719727 8.9440918 C -8.76242127 -0.76301983 -8.76242127 -0.76301983 0 0 Z" stroke-linecap="round" />
</g>
		<g transform="matrix(1 0 0 1 -25.13 -46.69)"  >
<path style="stroke: none; stroke-width: 1; stroke-dasharray: none; stroke-linecap: butt; stroke-dashoffset: 0; stroke-linejoin: miter; stroke-miterlimit: 4; fill: rgb(0,173,221); fill-rule: nonzero; opacity: 1;" vector-effect="non-scaling-stroke"  transform=" translate(15, -78.89)" d="M 0 0 C 1.19625 0.07605469 2.3925 0.15210938 3.625 0.23046875 C 8.4191476 0.9459219 11.06912455 2.02146373 14.44140625 5.56640625 C 16.88775226 8.93996293 18.97300548 12.36672578 21 16 C 21.35578125 16.61020996 21.7115625 17.22041992 22.078125 17.84912109 C 27.13978063 26.53508721 31.05441127 35.35989142 34 45 C 34.3196875 46.010625 34.639375 47.02125 34.96875 48.0625 C 38.78791984 61.924672 38.31212187 77.33335567 34 91 C 33.6596875 92.13695312 33.319375 93.27390625 32.96875 94.4453125 C 25.0201901 118.88176355 5.58893622 138.40566562 -15 153 C -16.15822266 153.86818359 -16.15822266 153.86818359 -17.33984375 154.75390625 C -20.81814276 157.20407081 -22.44652778 157.99092668 -26.8125 158.0625 C -30.51947783 156.82684072 -31.21077735 156.4105417 -33 153 C -33.44743236 149.77685151 -33.45936397 146.56280179 -33.5 143.3125 C -33.80325147 133.61011909 -34.91271185 124.46958291 -37 115 C -37.1542041 114.26104492 -37.3084082 113.52208984 -37.46728516 112.76074219 C -41.57418794 93.47508704 -49.85087288 74.1386585 -63.38183594 59.50561523 C -67.65404498 54.81758798 -67.73852298 51.62830138 -67.48046875 45.51171875 C -66.10812216 35.48131561 -61.72849979 27.41597694 -55 20 C -54.23429688 19.09701172 -54.23429688 19.09701172 -53.453125 18.17578125 C -39.36038289 2.65283512 -19.98345787 -1.4701372 0 0 Z" stroke-linecap="round" />
</g>
		<g transform="matrix(1 0 0 1 -172.56 -29.59)"  >
<path style="stroke: none; stroke-width: 1; stroke-dasharray: none; stroke-linecap: butt; stroke-dashoffset: 0; stroke-linejoin: miter; stroke-miterlimit: 4; fill: rgb(0,1,1); fill-rule: nonzero; opacity: 1;" vector-effect="non-scaling-stroke"  transform=" translate(-12.56, -221.99)" d="M 0 0 C 2.9375 2.0625 2.9375 2.0625 5 5 C 5 8.39964044 4.89439609 10.76867387 2.859375 13.5703125 C 0.19784307 15.61678453 -2.54022001 16.28842034 -5.75 17.25 C -23.68654474 22.85873249 -23.68654474 22.85873249 -39 33 C -39.62865864 37.07298958 -39.62865864 37.07298958 -39 41 C -37.47448209 42.43452135 -37.47448209 42.43452135 -35.44921875 43.4765625 C -34.7214624 43.89679687 -33.99370605 44.31703125 -33.24389648 44.75 C -32.13316772 45.36875 -32.13316772 45.36875 -31 46 C -29.71096146 46.75865373 -28.42440343 47.52154131 -27.140625 48.2890625 C -26.50584229 48.66740234 -25.87105957 49.04574219 -25.21704102 49.43554688 C -11.69789652 57.61045962 5.9133757 70.446668 11 86 C 11.89811777 92.51135386 12.01736528 99.18087092 8.59375 104.9765625 C 5.62694798 108.74323761 2.1802234 112.03850704 -1.26953125 115.35546875 C -4.7549564 118.73119525 -7.91509784 122.25915023 -11 126 C -11.80824219 126.969375 -12.61648437 127.93875 -13.44921875 128.9375 C -28.78991216 147.67732998 -40.75134158 168.85279708 -48 192 C -48.35707031 193.11761719 -48.71414062 194.23523438 -49.08203125 195.38671875 C -57.34413433 223.51500228 -57.52589776 255.33027148 -52 284 C -51.72952056 285.56233614 -51.45998901 287.12483668 -51.19140625 288.6875 C -45.43704375 320.41086087 -31.17248556 350.71703242 -10 375 C -9.57605957 375.49097168 -9.15211914 375.98194336 -8.71533203 376.48779297 C -2.39597941 383.76763177 4.29365493 390.17123833 12 396 C 13.03511719 396.80050781 14.07023437 397.60101563 15.13671875 398.42578125 C 35.35641189 413.71143944 58.14194416 422.0828111 82.68505859 427.48339844 C 92.36723515 429.64406977 92.36723515 429.64406977 95 431.125 C 96.63778878 434.19585396 96.86149375 437.63542597 96 441 C 92.27199647 444.4241668 89.59409984 444.38670279 84.72949219 444.23095703 C 80.26130921 443.85288001 75.98188386 442.97671681 71.625 441.9375 C 70.67383301 441.71344482 69.72266602 441.48938965 68.74267578 441.25854492 C 23.21461346 430.13877038 -16.07657768 401.96853888 -40.625 361.875 C -61.65560974 326.04363916 -71.46752264 286.79558625 -71.375 245.4375 C -71.37445618 244.5172403 -71.37391235 243.59698059 -71.37335205 242.64883423 C -71.33393515 228.10226182 -70.49980185 214.17620889 -67 200 C -66.68651611 198.67597168 -66.68651611 198.67597168 -66.36669922 197.32519531 C -57.50330286 160.71638069 -37.83752968 130.93609528 -12.5078125 103.75390625 C -7.26361306 98.64205655 -7.26361306 98.64205655 -4.75 92.1875 C -6.631944 87.38854279 -9.62966336 83.85840888 -13 80 C -13.56589844 79.33871094 -14.13179687 78.67742187 -14.71484375 77.99609375 C -22.23956343 69.84568622 -32.17329101 63.86290194 -42 58.875 C -48.17253994 55.61854823 -52.31652909 51.36694182 -55.4375 45.125 C -56.9118367 36.93424053 -56.5270246 30.1425344 -52 23 C -46.60298386 17.10063041 -40.11829556 13.67302788 -32.9375 10.375 C -31.9276001 9.90280029 -30.9177002 9.43060059 -29.87719727 8.9440918 C -8.76242127 -0.76301983 -8.76242127 -0.76301983 0 0 Z" stroke-linecap="round" />
</g>
		<g transform="matrix(1 0 0 1 -107.27 24.93)"  >
<path style="stroke: none; stroke-width: 1; stroke-dasharray: none; stroke-linecap: butt; stroke-dashoffset: 0; stroke-linejoin: miter; stroke-miterlimit: 4; fill: rgb(192,190,201); fill-rule: nonzero; opacity: 1;" vector-effect="non-scaling-stroke"  transform=" translate(20.15, -83.52)" d="M 0 0 C 4.39676507 3.38601448 7.56858161 6.75614194 10.5 11.5 C 10.88164307 12.10513428 11.26328613 12.71026855 11.65649414 13.33374023 C 15.33890648 19.30574341 18.28550355 25.52970846 21 32 C 21.38285156 32.82371094 21.76570313 33.64742187 22.16015625 34.49609375 C 23.20136737 37.60035573 23.42612272 39.74290359 23 43 C 21.19921875 45.578125 21.19921875 45.578125 18.6875 48.25 C -0.92661418 70.32782533 -9.69890265 96.78664731 -8.26318359 126.05810547 C -7.65911581 132.81044018 -5.6426561 138.79964067 -3 145 C -2.62746094 145.93714844 -2.25492188 146.87429688 -1.87109375 147.83984375 C 0.77384306 153.82090295 4.6103678 158.26117956 9.109375 162.96875 C 11 165 11 165 12 167 C 6.68618827 167.22140882 2.10927427 166.5305864 -3 165 C -3.73549072 164.77997314 -4.47098145 164.55994629 -5.22875977 164.33325195 C -17.16570254 160.55580327 -27.70087273 154.39972981 -37 146 C -37.75667969 145.33613281 -38.51335937 144.67226563 -39.29296875 143.98828125 C -52.53502128 131.65790187 -62.60344931 113.00188476 -63.46875 94.80078125 C -63.50289759 92.63826534 -63.5126871 90.47524829 -63.5 88.3125 C -63.49427979 87.17272705 -63.48855957 86.0329541 -63.48266602 84.85864258 C -62.97929629 60.94603852 -49.95772365 41.95325136 -34 25 C -33.20916016 24.11248047 -33.20916016 24.11248047 -32.40234375 23.20703125 C -23.43150608 13.54789401 -11.48205913 6.26488515 0 0 Z" stroke-linecap="round" />
</g>
		<g transform="matrix(1 0 0 1 121.36 -47.42)"  >
<path style="stroke: none; stroke-width: 1; stroke-dasharray: none; stroke-linecap: butt; stroke-dashoffset: 0; stroke-linejoin: miter; stroke-miterlimit: 4; fill: rgb(223,221,227); fill-rule: nonzero; opacity: 1;" vector-effect="non-scaling-stroke"  transform=" translate(-82.49, -35.16)" d="M 0 0 C 8.41219067 0.53172374 16.54833069 1.67112618 24.8125 3.3125 C 25.95178955 3.53615234 27.0910791 3.75980469 28.26489258 3.99023438 C 40.74631089 6.48456379 52.77260954 9.76828642 64.7578125 14.046875 C 69.0520035 15.30926368 71.76875323 15.41041559 76 14 C 76.33 13.01 76.66 12.02 77 11 C 80.02110734 11.9427569 83.01101731 12.96015813 86 14 C 86.8353125 14.26683594 87.670625 14.53367188 88.53125 14.80859375 C 90.93352372 15.68604763 92.92672913 16.49710496 95 18 C 95.78107499 19.99888008 96.04717859 21.82488283 96.33569336 23.94555664 C 97.18593252 26.57501732 98.09784218 27.08251671 100.46484375 28.44921875 C 101.55430298 29.08307495 101.55430298 29.08307495 102.66577148 29.72973633 C 105.7359912 31.400519 108.83002943 33.01339306 111.95068359 34.58789062 C 130.65920615 44.03352661 148.40181374 55.20556476 165 68 C 161.26537236 70.41737292 157.5531946 70.30533866 153.25390625 70.30078125 C 152.49509659 70.30638062 151.73628693 70.31197998 150.95448303 70.31774902 C 148.4902879 70.32967875 146.02669478 70.32337714 143.5625 70.3125 C 142.72265564 70.31067719 141.88281128 70.30885437 141.01751709 70.30697632 C 128.97630994 70.26279078 117.23717899 69.85408421 105.39599609 67.47851562 C 102.90163772 66.98035561 100.40052909 66.54487284 97.89453125 66.109375 C 71.24298887 61.17228997 45.38006476 51.09768482 20.68212891 40.17041016 C 16.77928255 38.46731117 12.8351044 36.87692633 8.875 35.3125 C 7.71742188 34.85488281 6.55984375 34.39726562 5.3671875 33.92578125 C 4.58601563 33.62027344 3.80484375 33.31476563 3 33 C 2.92652344 31.09927734 2.92652344 31.09927734 2.8515625 29.16015625 C 2.77645809 27.46091904 2.70091368 25.76170124 2.625 24.0625 C 2.5940625 23.23169922 2.563125 22.40089844 2.53125 21.54492188 C 2.29829049 16.55570572 1.68317923 11.93839313 0.41552734 7.10327148 C -0.05994292 4.69658738 -0.06565505 2.44711842 0 0 Z" stroke-linecap="round" />
</g>
		<g transform="matrix(1 0 0 1 -103.52 -22.87)"  >
<path style="stroke: none; stroke-width: 1; stroke-dasharray: none; stroke-linecap: butt; stroke-dashoffset: 0; stroke-linejoin: miter; stroke-miterlimit: 4; fill: rgb(223,221,227); fill-rule: nonzero; opacity: 1;" vector-effect="non-scaling-stroke"  transform=" translate(16.4, -35.71)" d="M 0 0 C 4.39676507 3.38601448 7.56858161 6.75614194 10.5 11.5 C 10.88164307 12.10513428 11.26328613 12.71026855 11.65649414 13.33374023 C 15.33890648 19.30574341 18.28550355 25.52970846 21 32 C 21.38285156 32.82371094 21.76570313 33.64742187 22.16015625 34.49609375 C 23.20275489 37.6044925 23.42984482 39.73823638 23 43 C 21.1640625 45.6484375 21.1640625 45.6484375 18.625 48.375 C 15.47340302 51.84057292 12.74692468 55.25309193 10.42578125 59.3359375 C 9.79905518 60.43349365 9.79905518 60.43349365 9.15966797 61.55322266 C 8.35845917 62.99334986 7.58408438 64.4488098 6.84033203 65.91943359 C 5.6994483 67.94926621 4.75311285 69.46319704 3 71 C -0.094142 71.70263789 -2.87715394 71.42016599 -6 71 C -7.09183594 70.90203125 -8.18367188 70.8040625 -9.30859375 70.703125 C -25.30055893 68.38718497 -41.42591265 65.28704368 -56 58 C -55.45267486 53.17611744 -53.224676 49.52869275 -50.6875 45.5 C -50.245271 44.7972998 -49.80304199 44.09459961 -49.34741211 43.37060547 C -37.13654436 24.56208447 -19.29908952 10.90962277 0 0 Z" stroke-linecap="round" />
</g>
		<g transform="matrix(1 0 0 1 -46.62 -108.5)"  >
<path style="stroke: none; stroke-width: 1; stroke-dasharray: none; stroke-linecap: butt; stroke-dashoffset: 0; stroke-linejoin: miter; stroke-miterlimit: 4; fill: rgb(88,193,231); fill-rule: nonzero; opacity: 1;" vector-effect="non-scaling-stroke"  transform=" translate(44.5, -35.09)" d="M 0 0 C -0.66 0.515625 -1.32 1.03125 -2 1.5625 C -4.23393458 3.90645229 -4.23393458 3.90645229 -4.6875 7.1875 C -3.70164264 12.65452715 -0.62674459 15.91991233 3 20 C -0.50750336 21.16916779 -2.25759974 20.45003292 -5.72998047 19.51123047 C -20.46545699 16.19265789 -35.34446311 19.55223689 -48.3125 26.75 C -60.63525253 34.77411792 -70.43249251 45.47514808 -74 60 C -74.54810009 63.99927266 -74.8592254 67.96680777 -75 72 C -80.72554976 67.74093983 -86.37992202 63.39719064 -92 59 C -85.22288554 36.42002879 -73.85629379 18.27180536 -52.6875 6.6875 C -36.47982925 -1.64561264 -17.97273808 -3.83792844 0 0 Z" stroke-linecap="round" />
</g>
		<g transform="matrix(1 0 0 1 144.27 -106.57)"  >
<path style="stroke: none; stroke-width: 1; stroke-dasharray: none; stroke-linecap: butt; stroke-dashoffset: 0; stroke-linejoin: miter; stroke-miterlimit: 4; fill: rgb(3,4,5); fill-rule: nonzero; opacity: 1;" vector-effect="non-scaling-stroke"  transform=" translate(7.96, -13.4)" d="M 0 0 C 6.38013228 2.78360984 9.87573707 7.99856623 13.0234375 14.0078125 C 14.17421525 18.38076794 14.26728009 21.19669754 12.1484375 25.2578125 C 9.52310704 27.48934339 8.86363821 27.77026034 5.5859375 27.9453125 C 1.6484375 27.3828125 1.6484375 27.3828125 -0.2265625 25.8828125 C -1.77355002 22.44506246 -2.55292806 19.06881761 -3.3515625 15.3828125 C -4.6303125 15.3209375 -5.9090625 15.2590625 -7.2265625 15.1953125 C -7.94585937 15.16050781 -8.66515625 15.12570313 -9.40625 15.08984375 C -10.04820312 15.18652344 -10.69015625 15.28320312 -11.3515625 15.3828125 C -13.53919761 18.31252286 -13.53919761 18.31252286 -14.2890625 21.9453125 C -15.3515625 25.3828125 -15.3515625 25.3828125 -18.3515625 27.3828125 C -22.18849837 27.80138732 -24.46359314 27.92925519 -27.7890625 25.8828125 C -29.98848297 22.36373974 -30.05219822 19.35548925 -29.3515625 15.3828125 C -27.14396946 8.407341 -22.62328255 4.00327942 -16.4921875 0.2421875 C -11.439222 -1.78637529 -5.19847516 -1.36438385 0 0 Z" stroke-linecap="round" />
</g>
		<g transform="matrix(1 0 0 1 -78.53 -32.09)"  >
<path style="stroke: none; stroke-width: 1; stroke-dasharray: none; stroke-linecap: butt; stroke-dashoffset: 0; stroke-linejoin: miter; stroke-miterlimit: 4; fill: rgb(191,189,200); fill-rule: nonzero; opacity: 1;" vector-effect="non-scaling-stroke"  transform=" translate(-8.6, -26.5)" d="M 0 0 C 4.39676507 3.38601448 7.56858161 6.75614194 10.5 11.5 C 10.88164307 12.10513428 11.26328613 12.71026855 11.65649414 13.33374023 C 15.33890648 19.30574341 18.28550355 25.52970846 21 32 C 21.38285156 32.82371094 21.76570313 33.64742187 22.16015625 34.49609375 C 23.19839866 37.59150486 23.40295882 39.75114455 23 43 C 21.25 45.7734375 21.25 45.7734375 19 48.375 C 17.88625 49.68597656 17.88625 49.68597656 16.75 51.0234375 C 15.88375 52.00183594 15.88375 52.00183594 15 53 C 12.41279482 51.70639741 12.33665678 50.76127535 11.3359375 48.08984375 C 11.02229248 47.27265869 10.70864746 46.45547363 10.38549805 45.61352539 C 10.05203369 44.73043701 9.71856934 43.84734863 9.375 42.9375 C 6.80407246 36.27140543 4.03531142 29.873524 0.6875 23.5625 C -2.83959003 16.86204199 -4.765025 10.51276459 -6 3 C -4.02 2.01 -2.04 1.02 0 0 Z" stroke-linecap="round" />
</g>
		<g transform="matrix(1 0 0 1 27.88 -118.59)"  >
<path style="stroke: none; stroke-width: 1; stroke-dasharray: none; stroke-linecap: butt; stroke-dashoffset: 0; stroke-linejoin: miter; stroke-miterlimit: 4; fill: rgb(88,191,228); fill-rule: nonzero; opacity: 1;" vector-effect="non-scaling-stroke"  transform=" translate(-22, -22)" d="M 0 0 C 17.48666655 5.35464493 31.48980301 19.04174018 40.7734375 34.4453125 C 42 37 42 37 44 44 C 38.39 43.67 32.78 43.34 27 43 C 25.824375 40.586875 24.64875 38.17375 23.4375 35.6875 C 18.0541214 24.85502505 11.59919751 15.240614 4.13671875 5.75 C 2 3 2 3 0 0 Z" stroke-linecap="round" />
</g>
		<g transform="matrix(1 0 0 1 47.89 -63.59)"  >
<path style="stroke: none; stroke-width: 1; stroke-dasharray: none; stroke-linecap: butt; stroke-dashoffset: 0; stroke-linejoin: miter; stroke-miterlimit: 4; fill: rgb(191,189,200); fill-rule: nonzero; opacity: 1;" vector-effect="non-scaling-stroke"  transform=" translate(-9.01, -19)" d="M 0 0 C 1.91697937 0.14166357 3.83357723 0.28849584 5.75 0.4375 C 7.35101563 0.55931641 7.35101563 0.55931641 8.984375 0.68359375 C 11.43679962 0.94090773 13.63921291 1.31812218 16 2 C 18.29658079 14.01603879 18.21517374 25.81454544 18 38 C 7.44191344 34.92482916 7.44191344 34.92482916 3 33 C 2.92652344 31.09927734 2.92652344 31.09927734 2.8515625 29.16015625 C 2.77645809 27.46091904 2.70091368 25.76170124 2.625 24.0625 C 2.5940625 23.23169922 2.563125 22.40089844 2.53125 21.54492188 C 2.29629566 16.51298313 1.61783796 11.87354446 0.42333984 6.98217773 C -0.08065349 4.62236118 -0.15516353 2.4050347 0 0 Z" stroke-linecap="round" />
</g>
</g>
</g>
<g transform="matrix(0.67 0 0 0.67 823.24 658.18)"  >
<g style="" vector-effect="non-scaling-stroke"   >
		<g transform="matrix(1 0 0 1 -7.09 0)"  >
<path style="stroke: none; stroke-width: 1; stroke-dasharray: none; stroke-linecap: butt; stroke-dashoffset: 0; stroke-linejoin: miter; stroke-miterlimit: 4; fill: rgb(253,153,35); fill-rule: nonzero; opacity: 1;" vector-effect="non-scaling-stroke"  transform=" translate(34.49, -240.2)" d="M 0 0 C 1.96834557 -0.01045349 1.96834557 -0.01045349 3.97645569 -0.02111816 C 8.18613098 -0.04038315 12.39575417 -0.04529333 16.60546875 -0.046875 C 17.32173683 -0.04746414 18.03800491 -0.04805328 18.77597809 -0.04866028 C 40.2576763 -0.06113797 61.47102782 0.26508696 82.79296875 3.203125 C 83.91445313 3.34766113 85.0359375 3.49219727 86.19140625 3.64111328 C 124.03132392 8.57319262 168.72722375 16.74263635 198.79296875 42.203125 C 199.67984375 42.8425 200.56671875 43.481875 201.48046875 44.140625 C 204.80807785 47.10849257 207.46134077 50.40453927 209.79296875 54.203125 C 210.28945671 54.99305847 210.28945671 54.99305847 210.79597473 55.7989502 C 214.99833931 63.62606774 214.41099571 72.09240408 214.39453125 80.72265625 C 214.40232102 82.42982901 214.41099359 84.13699794 214.42050171 85.84416199 C 214.43536906 89.412268 214.43488651 92.97997807 214.42431641 96.5480957 C 214.41274441 101.09071454 214.44656931 105.63169773 214.49300575 110.17404652 C 214.52266521 113.69774131 214.52419903 117.22105071 214.5179863 120.74484825 C 214.51900386 122.4179883 214.52931073 124.09115248 214.54961014 125.76416969 C 214.67618566 137.65520597 213.14451634 146.84458753 205.36328125 156.4296875 C 183.80029474 177.57932603 153.94899225 186.63071185 125.29296875 193.640625 C 124.23634033 193.89996826 123.17971191 194.15931152 122.09106445 194.42651367 C 117.24924324 195.56634194 112.80613793 196.55507695 107.79296875 196.203125 C 108.11749023 197.36070312 108.44201172 198.51828125 108.77636719 199.7109375 C 110.3307287 206.75509137 110.08095183 213.90492895 110.05859375 221.078125 C 110.05994393 222.61311911 110.06188739 224.14811281 110.06439209 225.68310547 C 110.06732676 228.88708603 110.0630994 232.09095444 110.05371094 235.29492188 C 110.04231737 239.37992279 110.04888577 243.4646608 110.06085587 247.5496521 C 110.06811944 250.71543318 110.065766 253.88115301 110.06060028 257.04693604 C 110.05927619 258.55226676 110.06086745 260.05760325 110.06555939 261.56292725 C 110.08451773 269.35292575 109.90925108 276.6542808 107.79296875 284.203125 C 108.43693604 284.23905762 109.08090332 284.27499023 109.74438477 284.31201172 C 117.32867266 284.85398792 124.39538782 286.36850779 131.73046875 288.328125 C 133.50164062 288.79726318 133.50164062 288.79726318 135.30859375 289.27587891 C 160.9515927 296.20407269 193.8515753 306.01510774 209.30366516 329.49906921 C 214.54573949 338.7007583 214.67701446 346.73196319 214.58984375 357.015625 C 214.59389707 358.71851091 214.59972973 360.4213934 214.60723877 362.12426758 C 214.61603054 365.67465619 214.6034049 369.22413246 214.57519531 372.77441406 C 214.54101061 377.29350936 214.56072319 381.81046593 214.5966301 386.32948303 C 214.61845725 389.84036975 214.61134511 393.35076103 214.59586334 396.86166382 C 214.59190083 398.52640038 214.59662979 400.19118401 214.61074066 401.85586548 C 214.69400806 414.43535232 212.66334693 424.97565822 203.6328125 434.51171875 C 161.9321301 472.84801488 89.86056118 480.21139132 35.5859375 480.40625 C 34.27370712 480.41321899 32.96147675 480.42018799 31.60948181 480.42736816 C 27.39980652 480.44663315 23.19018333 480.45154333 18.98046875 480.453125 C 18.26420067 480.45371414 17.54793259 480.45430328 16.80995941 480.45491028 C -4.6717388 480.46738797 -25.88509032 480.14116304 -47.20703125 477.203125 C -48.88925781 476.9863208 -48.88925781 476.9863208 -50.60546875 476.76513672 C -88.76612748 471.79125178 -131.01410391 463.12380095 -162.20703125 439.203125 C -163.06296875 438.56632812 -163.91890625 437.92953125 -164.80078125 437.2734375 C -167.42312579 435.01719951 -169.30984846 432.69392546 -171.33203125 429.890625 C -171.99460937 428.98699219 -172.6571875 428.08335937 -173.33984375 427.15234375 C -177.14414238 421.14346201 -178.65722805 416.41229036 -178.56347656 409.31176758 C -178.56552094 408.55639206 -178.56756531 407.80101654 -178.56967163 407.02275085 C -178.57265871 404.54746599 -178.55426832 402.07286098 -178.53515625 399.59765625 C -178.53209536 397.86846583 -178.53022175 396.13927293 -178.52947998 394.41007996 C -178.52489024 390.79648313 -178.51051305 387.1831108 -178.48828125 383.56958008 C -178.45993643 378.93927982 -178.44906166 374.30915553 -178.44459915 369.67877674 C -178.44044247 366.11258693 -178.43062391 362.54643256 -178.41872406 358.98026085 C -178.41303144 357.27263356 -178.40826942 355.5650029 -178.40445709 353.85737038 C -178.39757941 351.47361901 -178.38394141 349.09000586 -178.36816406 346.70629883 C -178.3670462 346.00231964 -178.36592834 345.29834045 -178.36477661 344.57302856 C -178.33616154 341.30725118 -178.20678405 338.32739921 -177.20703125 335.203125 C -177.90449463 335.0580249 -178.60195801 334.9129248 -179.32055664 334.76342773 C -257.74692199 318.29280024 -257.74692199 318.29280024 -279.83203125 286.7578125 C -282.78636912 281.26878702 -283.45937057 275.91962897 -283.48168945 269.75830078 C -283.48935585 268.69580612 -283.48935585 268.69580612 -283.49717712 267.61184692 C -283.51097747 265.29062238 -283.51012353 262.96969798 -283.5078125 260.6484375 C -283.51170491 259.02090344 -283.51604069 257.39337039 -283.52079773 255.76583862 C -283.52823957 252.36159974 -283.52798365 248.95746461 -283.52270508 245.55322266 C -283.51691554 241.21025851 -283.53383872 236.86772155 -283.55704975 232.52482796 C -283.57184707 229.16516678 -283.57265063 225.80560704 -283.56954002 222.44591904 C -283.5700503 220.84568308 -283.57523245 219.24544101 -283.58535194 217.64523697 C -283.66629034 203.05667518 -281.33198231 193.84636562 -271.125 182.98828125 C -246.94728737 159.55196355 -209.18895136 151.34029918 -177.20703125 145.203125 C -177.36772598 144.69624146 -177.52842072 144.18935791 -177.69398499 143.66711426 C -178.37976852 140.37352577 -178.38771414 137.12887883 -178.41577148 133.77929688 C -178.42555527 133.03720978 -178.43533905 132.29512268 -178.44541931 131.5305481 C -178.4752965 129.07767502 -178.49674439 126.62485651 -178.515625 124.171875 C -178.52219683 123.32998123 -178.52876865 122.48808746 -178.53553963 121.62068176 C -178.56810911 117.15892212 -178.59255874 112.697186 -178.61206055 108.23535156 C -178.62982082 104.56116495 -178.66455849 100.88775347 -178.71459961 97.21386719 C -178.77516404 92.7611689 -178.805586 88.30918487 -178.81523323 83.85609436 C -178.82373204 82.16894716 -178.84241049 80.48181614 -178.87197685 78.79490662 C -179.07380169 66.6182078 -177.41521154 57.67380576 -169.68359375 47.75 C -130.0683665 7.01005021 -53.7238536 0.19288129 0 0 Z" stroke-linecap="round" />
</g>
		<g transform="matrix(1 0 0 1 41.6 141.63)"  >
<path style="stroke: none; stroke-width: 1; stroke-dasharray: none; stroke-linecap: butt; stroke-dashoffset: 0; stroke-linejoin: miter; stroke-miterlimit: 4; fill: rgb(253,153,35); fill-rule: nonzero; opacity: 1;" vector-effect="non-scaling-stroke"  transform=" translate(92.59, -98.63)" d="M 0 0 C 33.34403954 6.14803332 79.06682433 15.1872785 101 44 C 107.48127162 53.8501843 107.89318325 62.45086901 107.796875 73.8125 C 107.80092832 75.51538591 107.80676098 77.2182684 107.81427002 78.92114258 C 107.82306179 82.47153119 107.81043615 86.02100746 107.78222656 89.57128906 C 107.74804186 94.09038436 107.76775444 98.60734093 107.80366135 103.12635803 C 107.8254885 106.63724475 107.81837636 110.14763603 107.80289459 113.65853882 C 107.79893208 115.32327538 107.80366104 116.98805901 107.81777191 118.65274048 C 107.90103931 131.23222732 105.87037818 141.77253322 96.83984375 151.30859375 C 55.13916135 189.64488988 -16.93240757 197.00826632 -71.20703125 197.203125 C -72.51926163 197.21009399 -73.831492 197.21706299 -75.18348694 197.22424316 C -79.39316223 197.24350815 -83.60278542 197.24841833 -87.8125 197.25 C -88.52876808 197.25058914 -89.24503616 197.25117828 -89.98300934 197.25178528 C -111.46470755 197.26426297 -132.67805907 196.93803804 -154 194 C -155.68222656 193.7831958 -155.68222656 193.7831958 -157.3984375 193.56201172 C -195.55909623 188.58812678 -237.80707266 179.92067595 -269 156 C -269.8559375 155.36320313 -270.711875 154.72640625 -271.59375 154.0703125 C -274.21609454 151.81407451 -276.10281721 149.49080046 -278.125 146.6875 C -279.11886719 145.33205078 -279.11886719 145.33205078 -280.1328125 143.94921875 C -283.93711113 137.94033701 -285.4501968 133.20916536 -285.35644531 126.10864258 C -285.35848969 125.35326706 -285.36053406 124.59789154 -285.36264038 123.81962585 C -285.36562746 121.34434099 -285.34723707 118.86973598 -285.328125 116.39453125 C -285.32506411 114.66534083 -285.3231905 112.93614793 -285.32244873 111.20695496 C -285.31785899 107.59335813 -285.3034818 103.9799858 -285.28125 100.36645508 C -285.25290518 95.73615482 -285.24203041 91.10603053 -285.2375679 86.47565174 C -285.23341122 82.90946193 -285.22359266 79.34330756 -285.21169281 75.77713585 C -285.20600019 74.06950856 -285.20123817 72.3618779 -285.19742584 70.65424538 C -285.19054816 68.27049401 -285.17691016 65.88688086 -285.16113281 63.50317383 C -285.15945602 62.44720505 -285.15945602 62.44720505 -285.15774536 61.36990356 C -285.12822854 58.00121173 -284.82588711 55.30354846 -284 52 C -286.97 51.34 -289.94 50.68 -293 50 C -293 40.1 -293 30.2 -293 20 C -287.39 20 -281.78 20 -276 20 C -276 30.89 -276 41.78 -276 53 C -271.71 53.33 -267.42 53.66 -263 54 C -260.38827283 54.24014323 -257.77735318 54.48951928 -255.16796875 54.75390625 C -253.98227295 54.8732251 -252.79657715 54.99254395 -251.57495117 55.11547852 C -250.12709229 55.26299561 -248.6792334 55.4105127 -247.1875 55.5625 C -242.505625 56.036875 -237.82375 56.51125 -233 57 C -233 47.1 -233 37.2 -233 27 C -227.06 27 -221.12 27 -215 27 C -215 37.56 -215 48.12 -215 59 C -200.81 59 -186.62 59 -172 59 C -172 48.44 -172 37.88 -172 27 C -166.39 27 -160.78 27 -155 27 C -155 36.9 -155 46.8 -155 57 C -145.38327706 56.05922533 -145.38327706 56.05922533 -135.7668457 55.11547852 C -134.54054443 54.99615967 -133.31424316 54.87684082 -132.05078125 54.75390625 C -130.82012939 54.63345947 -129.58947754 54.5130127 -128.3215332 54.38891602 C -122.55247193 53.86972983 -116.77531469 53.44425498 -111 53 C -111 42.11 -111 31.22 -111 20 C -105.39 20 -99.78 20 -94 20 C -94 29.57 -94 39.14 -94 49 C -81.08102629 45.89944631 -68.50073327 42.78121339 -56.0703125 38.1015625 C -53 37 -53 37 -51 37 C -51 25.78 -51 14.56 -51 3 C -45.39 3 -39.78 3 -34 3 C -34 11.58 -34 20.16 -34 29 C -19.92903247 21.27476293 -9.05450853 13.58176279 0 0 Z" stroke-linecap="round" />
</g>
		<g transform="matrix(1 0 0 1 45.23 -169.97)"  >
<path style="stroke: none; stroke-width: 1; stroke-dasharray: none; stroke-linecap: butt; stroke-dashoffset: 0; stroke-linejoin: miter; stroke-miterlimit: 4; fill: rgb(254,204,60); fill-rule: nonzero; opacity: 1;" vector-effect="non-scaling-stroke"  transform=" translate(-17.84, -70.24)" d="M 0 0 C 1.96834557 -0.01045349 1.96834557 -0.01045349 3.97645569 -0.02111816 C 8.18613098 -0.04038315 12.39575417 -0.04529333 16.60546875 -0.046875 C 17.32173683 -0.04746414 18.03800491 -0.04805328 18.77597809 -0.04866028 C 40.2576763 -0.06113797 61.47102782 0.26508696 82.79296875 3.203125 C 83.91445313 3.34766113 85.0359375 3.49219727 86.19140625 3.64111328 C 124.03132392 8.57319262 168.72722375 16.74263635 198.79296875 42.203125 C 199.67984375 42.8425 200.56671875 43.481875 201.48046875 44.140625 C 207.77517647 49.75482377 212.94496779 57.37960823 214.17578125 65.83203125 C 214.58627777 75.45133296 211.87871066 83.22009322 205.54296875 90.453125 C 203.97996466 92.05652984 202.39765945 93.64144109 200.79296875 95.203125 C 200.19871094 95.81800781 199.60445313 96.43289062 198.9921875 97.06640625 C 174.83270463 120.36878995 130.7362612 129.65172465 98.98388672 133.87573242 C 96.5618733 134.23765798 94.17242522 134.70749037 91.76953125 135.1796875 C 85.15290624 136.40327072 78.49420223 137.00075722 71.79785156 137.58081055 C 69.69149682 137.76358342 67.58599074 137.95438009 65.48046875 138.14648438 C 49.17651918 139.61227626 32.91505179 140.46853275 16.54296875 140.515625 C 15.21233902 140.51955261 15.21233902 140.51955261 13.85482788 140.52355957 C -14.5056789 140.53235129 -43.72496749 138.70327328 -71.51464844 132.77587891 C -74.54444676 132.13134618 -77.58230712 131.53426327 -80.62109375 130.93359375 C -111.9760243 124.54614389 -151.14521395 114.54157594 -172.20703125 88.203125 C -177.11761899 80.19235897 -179.47366282 72.63116563 -178.20703125 63.203125 C -170.97603696 43.47561372 -153.22390409 33.65534822 -135.20703125 25.203125 C -94.47378982 6.4195947 -44.58972066 0.1600876 0 0 Z" stroke-linecap="round" />
</g>
		<g transform="matrix(1 0 0 1 -60.9 -27.65)"  >
<path style="stroke: none; stroke-width: 1; stroke-dasharray: none; stroke-linecap: butt; stroke-dashoffset: 0; stroke-linejoin: miter; stroke-miterlimit: 4; fill: rgb(253,204,60); fill-rule: nonzero; opacity: 1;" vector-effect="non-scaling-stroke"  transform=" translate(-86.91, -66.35)" d="M 0 0 C 0.14695312 0.76183594 0.29390625 1.52367187 0.4453125 2.30859375 C 2.0486697 9.68956571 4.34472251 15.06992769 9 21 C 9.60457031 21.81082031 10.20914063 22.62164062 10.83203125 23.45703125 C 31.33277745 47.50385246 69.05364108 56.63548547 98.26904297 63.3671875 C 100.4234908 63.86641231 102.5738809 64.38314834 104.72265625 64.90625 C 156.30534878 77.41114516 215.38006729 80.54389932 268.12133789 73.66064453 C 272.80160946 73.0572904 277.29270076 72.92119477 282 73 C 269.32717514 97.6759476 239.29102576 107.77947659 214.44140625 115.81640625 C 200.21120833 120.26842531 185.87078444 123.14115202 171.15917969 125.49316406 C 168.42767434 125.93138702 165.70206154 126.39343 162.9765625 126.8671875 C 157.99919921 127.70752156 153.01010278 128.3864665 148 129 C 146.88737793 129.13680176 145.77475586 129.27360352 144.62841797 129.41455078 C 109.20222494 133.56719162 72.45687718 133.99077541 37 130 C 36.32056335 129.92458984 35.64112671 129.84917969 34.94110107 129.77148438 C -9.09874036 124.84794359 -66.65564532 117.99534691 -98.54296875 83.84765625 C -104.95812805 75.71261511 -109.07824038 67.48675723 -108 57 C -105.69232751 44.85325117 -96.04131383 35.68108825 -86.29150391 28.79296875 C -66.66541368 15.62880921 -43.68910876 8.75964015 -21 3 C -20.26700684 2.80792969 -19.53401367 2.61585938 -18.77880859 2.41796875 C -12.3869097 0.74454631 -6.61474082 -0.3891024 0 0 Z" stroke-linecap="round" />
</g>
		<g transform="matrix(1 0 0 1 45.89 110.09)"  >
<path style="stroke: none; stroke-width: 1; stroke-dasharray: none; stroke-linecap: butt; stroke-dashoffset: 0; stroke-linejoin: miter; stroke-miterlimit: 4; fill: rgb(253,204,60); fill-rule: nonzero; opacity: 1;" vector-effect="non-scaling-stroke"  transform=" translate(90.3, -66.09)" d="M 0 0 C 7.88271293 0.4947495 15.2532039 2.10393701 22.875 4.125 C 24.06029297 4.43775879 25.24558594 4.75051758 26.46679688 5.07275391 C 52.83391373 12.16967756 84.82991136 22.07143221 100.94921875 45.87890625 C 105.36578302 53.77518782 106.49310402 60.80638333 104.3671875 69.625 C 98.55523391 86.38018153 82.2109615 96.56787405 67 104 C 44.95168775 114.18959852 21.54910634 120.3862081 -2.30883789 124.50317383 C -4.61082937 124.92815366 -6.85480108 125.4389022 -9.125 126.00390625 C -15.81388586 127.53021911 -22.68482881 128.0879769 -29.49829102 128.80493164 C -31.9013968 129.05868768 -34.30321484 129.32266176 -36.70507812 129.58789062 C -54.36694055 131.50351581 -71.92651687 132.2089764 -89.6875 132.1875 C -90.62098267 132.18689575 -91.55446533 132.1862915 -92.51623535 132.18566895 C -149.45999932 132.08641739 -228.27029669 128.89339664 -273 88 C -273.72703125 87.36449219 -274.4540625 86.72898437 -275.203125 86.07421875 C -280.22637868 81.43236026 -283.62029134 76.44123065 -286 70 C -286 69.01 -286 68.02 -286 67 C -280.947442 67.62345189 -275.89912568 68.27475456 -270.8515625 68.9375 C -268.80561794 69.20241103 -266.75953803 69.46624365 -264.71337891 69.72949219 C -263.33873262 69.90755018 -261.96437202 70.08783007 -260.59033203 70.27050781 C -240.55121421 72.92949811 -220.59677594 73.18816318 -200.40917969 73.18530273 C -197.57089804 73.18522196 -194.73277948 73.19210238 -191.89453125 73.20581055 C -166.42749397 73.32641246 -141.18641449 72.55142874 -116.04199219 68.13305664 C -113.47060661 67.68234797 -110.89608432 67.25493021 -108.3203125 66.83007812 C -91.60218956 64.01516291 -75.15434322 60.19587707 -59.1875 54.4375 C -58.01316406 54.01404297 -56.83882812 53.59058594 -55.62890625 53.15429688 C -36.49814342 46.03707463 -14.1308798 36.94189145 -4 18 C -3.401875 16.88625 -2.80375 15.7725 -2.1875 14.625 C -0.60256759 9.78678529 -0.26553622 5.06350106 0 0 Z" stroke-linecap="round" />
</g>
		<g transform="matrix(1 0 0 1 -59.26 36)"  >
<path style="stroke: none; stroke-width: 1; stroke-dasharray: none; stroke-linecap: butt; stroke-dashoffset: 0; stroke-linejoin: miter; stroke-miterlimit: 4; fill: rgb(253,152,35); fill-rule: nonzero; opacity: 1;" vector-effect="non-scaling-stroke"  transform=" translate(195.45, -66)" d="M 0 0 C 0.33 0 0.66 0 1 0 C 1.06977243 8.31947874 1.1229486 16.63883348 1.15543652 24.95853329 C 1.1710358 28.82247758 1.19216784 32.68622043 1.22631836 36.55004883 C 1.25911834 40.28481058 1.27689607 44.0193796 1.28463173 47.75427437 C 1.29013848 49.1731119 1.30089106 50.59193991 1.31719017 52.0106945 C 1.48295417 67.04933814 -1.71532126 76.03438876 -11.99609375 87.16015625 C -17.17853978 92.08788849 -28.50345644 102 -36 102 C -36 93.42 -36 84.84 -36 76 C -41.61 76 -47.22 76 -53 76 C -53 87.22 -53 98.44 -53 110 C -62.90559882 113.82716318 -72.6293929 117.37570501 -82.9375 119.9375 C -84.2054541 120.25400513 -84.2054541 120.25400513 -85.49902344 120.5769043 C -89.18764653 121.46009046 -92.16252055 122 -96 122 C -96 112.43 -96 102.86 -96 93 C -101.61 93 -107.22 93 -113 93 C -113 103.89 -113 114.78 -113 126 C -119.991875 126.99 -119.991875 126.99 -127.125 128 C -129.28313232 128.31324219 -129.28313232 128.31324219 -131.48486328 128.6328125 C -132.66806152 128.79523438 -133.85125977 128.95765625 -135.0703125 129.125 C -136.25383301 129.29257812 -137.43735352 129.46015625 -138.65673828 129.6328125 C -144.75064496 130.14800281 -150.88435452 130 -157 130 C -157 120.1 -157 110.2 -157 100 C -162.61 100 -168.22 100 -174 100 C -174 110.56 -174 121.12 -174 132 C -188.19 132 -202.38 132 -217 132 C -217 121.44 -217 110.88 -217 100 C -222.94 100 -228.88 100 -235 100 C -235 109.9 -235 119.8 -235 130 C -249.625 130 -249.625 130 -255.83203125 129.125 C -257.61057495 128.88136719 -257.61057495 128.88136719 -259.42504883 128.6328125 C -260.87290771 128.42398438 -262.3207666 128.21515625 -263.8125 128 C -268.494375 127.34 -273.17625 126.68 -278 126 C -278 115.11 -278 104.22 -278 93 C -283.61 93 -289.22 93 -295 93 C -295 102.9 -295 112.8 -295 123 C -328.27042778 115.99569942 -367.95562172 106.06817476 -388.625 76.5546875 C -391.45468716 71.29725738 -392.25009355 66.14899583 -392.22705078 60.23852539 C -392.22689972 58.93770523 -392.22674866 57.63688507 -392.22659302 56.29664612 C -392.21638281 54.89698123 -392.20595087 53.49731795 -392.1953125 52.09765625 C -392.19157733 50.65034685 -392.18873274 49.20303489 -392.18673706 47.75572205 C -392.17914024 43.96634813 -392.15952625 40.17713015 -392.1373291 36.38781738 C -392.11678503 32.51312366 -392.10771712 28.63840449 -392.09765625 24.76367188 C -392.07627617 17.17571055 -392.04218862 9.58787721 -392 2 C -389.77665895 4.22334105 -389.44319316 5.49002139 -388.5 8.4375 C -381.73163748 25.54299799 -362.79112006 34.81188656 -346.95703125 41.90234375 C -267.13989375 76.34409334 -163.47975874 75.57889236 -63.375 48.75 C -62.661091 48.51044586 -61.94718201 48.27089172 -61.2116394 48.02407837 C -50.68645406 44.47921865 -40.61951383 40.59793644 -31 35 C -30.07316406 34.49082031 -29.14632813 33.98164063 -28.19140625 33.45703125 C -16.08287017 26.58262644 -6.32854233 18.08422174 -1 5 C -0.23245168 2.18551086 -0.23245168 2.18551086 0 0 Z" stroke-linecap="round" />
</g>
		<g transform="matrix(1 0 0 1 45.29 -170.15)"  >
<path style="stroke: none; stroke-width: 1; stroke-dasharray: none; stroke-linecap: butt; stroke-dashoffset: 0; stroke-linejoin: miter; stroke-miterlimit: 4; fill: rgb(253,168,50); fill-rule: nonzero; opacity: 1;" vector-effect="non-scaling-stroke"  transform=" translate(-6.69, -37.16)" d="M 0 0 C 3.04735144 0.00461291 6.09430188 -0.00224383 9.14160156 -0.02050781 C 38.54513318 -0.19494637 67.48978145 1.94133446 96.59228516 6.31567383 C 97.29450195 6.4181543 97.99671875 6.52063477 98.72021484 6.6262207 C 117.92169733 9.51068493 148.76790604 14.74998214 161.21728516 31.37817383 C 162.81339896 34.78805332 163.21165316 36.59946579 162.59228516 40.31567383 C 158.13720505 49.61323231 147.62020157 53.58785441 138.59228516 57.31567383 C 137.79822266 57.6534082 137.00416016 57.99114258 136.18603516 58.33911133 C 102.03591925 71.84785971 60.699425 74.32665641 24.42041016 74.55395508 C 23.11460495 74.56365829 21.80879974 74.57336151 20.46342468 74.58335876 C 16.25638796 74.61046198 12.0493985 74.62153447 7.84228516 74.62817383 C 7.12438435 74.62961899 6.40648354 74.63106415 5.66682816 74.6325531 C -19.53383445 74.67348744 -44.40091929 73.63808828 -69.40771484 70.31567383 C -70.63522461 70.15550781 -71.86273438 69.9953418 -73.12744141 69.83032227 C -133.33336766 61.64175996 -133.33336766 61.64175996 -148.40771484 42.31567383 C -149.95056167 38.16249697 -149.83736638 35.31819409 -148.09521484 31.25317383 C -134.45568007 16.34484513 -112.4223648 12.05807582 -93.40771484 8.31567383 C -91.97000609 8.01719845 -90.53248968 7.71779427 -89.09521484 7.41723633 C -81.21633116 5.81359525 -73.34205357 4.75394885 -65.34423828 3.96142578 C -61.37084499 3.58887038 -61.37084499 3.58887038 -57.46166992 2.82157898 C -39.33290204 -1.64367791 -18.60425671 -0.03056717 0 0 Z" stroke-linecap="round" />
</g>
		<g transform="matrix(1 0 0 1 -66.63 -29.35)"  >
<path style="stroke: none; stroke-width: 1; stroke-dasharray: none; stroke-linecap: butt; stroke-dashoffset: 0; stroke-linejoin: miter; stroke-miterlimit: 4; fill: rgb(253,168,50); fill-rule: nonzero; opacity: 1;" vector-effect="non-scaling-stroke"  transform=" translate(-57.43, -30.59)" d="M 0 0 C 7.32897651 5.23588116 15.06745596 9.20901517 23.25 12.9375 C 23.9095166 13.23897949 24.5690332 13.54045898 25.24853516 13.85107422 C 44.41066614 22.47050639 64.74084913 27.66333678 85.25 31.9375 C 86.0651709 32.1137793 86.8803418 32.29005859 87.72021484 32.47167969 C 126.63606817 40.85403969 166.59889241 41.98102104 206.25 42.9375 C 201.7873832 46.56365614 196.96474503 48.01833627 191.5625 49.8125 C 190.50901367 50.16328613 189.45552734 50.51407227 188.37011719 50.87548828 C 176.86115817 54.57516104 165.14774703 56.88886138 153.25 58.9375 C 152.27796631 59.10918701 151.30593262 59.28087402 150.30444336 59.45776367 C 104.31501189 67.40334498 53.61745062 68.23982179 7.25 62.9375 C 6.19296875 62.8250293 5.1359375 62.71255859 4.046875 62.59667969 C -7.9140906 61.32266839 -19.80519314 59.87686459 -31.58105469 57.38525391 C -34.09306903 56.86667733 -36.61239927 56.39400773 -39.1328125 55.91796875 C -56.33623278 52.55806144 -76.08177479 48.00192562 -88.8125 35.0625 C -90.75321264 31.93231833 -91.63944042 29.72944683 -91.328125 26.0078125 C -89.69646703 20.164713 -85.47363243 17.01554622 -80.49609375 13.90234375 C -61.78288652 3.57174016 -18.65031978 -13.79839649 0 0 Z" stroke-linecap="round" />
</g>
		<g transform="matrix(1 0 0 1 49.31 108.85)"  >
<path style="stroke: none; stroke-width: 1; stroke-dasharray: none; stroke-linecap: butt; stroke-dashoffset: 0; stroke-linejoin: miter; stroke-miterlimit: 4; fill: rgb(253,168,50); fill-rule: nonzero; opacity: 1;" vector-effect="non-scaling-stroke"  transform=" translate(81.51, -34.6)" d="M 0 0 C 0.71599365 0.11915771 1.4319873 0.23831543 2.16967773 0.36108398 C 4.58149555 0.78065284 6.97546295 1.26541968 9.375 1.75 C 11.16519274 2.06997333 12.95556398 2.38894928 14.74609375 2.70703125 C 32.09222295 5.97014957 54.62760012 10.54637738 67.375 23.75 C 70.01943306 27.65397115 71.13627769 29.99201441 70.375 34.75 C 64.39537775 46.09066288 51.00772906 51.00134562 39.375 54.75 C 14.28231164 62.38946016 -12.48951644 66.13197377 -38.625 67.75 C -39.49817871 67.80639648 -40.37135742 67.86279297 -41.27099609 67.92089844 C -85.68834253 70.62644234 -132.81361665 71.00875484 -176.53759766 62.15478516 C -178.87717994 61.70109774 -181.2231701 61.30778691 -183.57421875 60.91796875 C -200.23456265 58.08292324 -218.17383773 53.93843585 -232.625 44.75 C -232.955 44.09 -233.285 43.43 -233.625 42.75 C -232.73504333 42.75444122 -231.84508667 42.75888245 -230.92816162 42.76345825 C -222.40153243 42.80409743 -213.87493729 42.83426294 -205.34823227 42.85362434 C -200.96811429 42.86391381 -196.5880785 42.87778868 -192.20800781 42.90087891 C -164.80401831 43.04107181 -137.74564731 42.64131168 -110.66699219 37.88305664 C -108.09560661 37.43234797 -105.52108432 37.00493021 -102.9453125 36.58007812 C -86.22658153 33.76506053 -69.78051719 29.9440102 -53.8125 24.1875 C -52.64033936 23.76621826 -51.46817871 23.34493652 -50.26049805 22.91088867 C -36.92194198 17.96043167 -22.89151793 12.15285508 -11.95703125 2.87109375 C -7.79209777 -0.46057834 -5.38508249 -0.943212 0 0 Z" stroke-linecap="round" />
</g>
		<g transform="matrix(1 0 0 1 -11.2 80.64)"  >
<path style="stroke: none; stroke-width: 1; stroke-dasharray: none; stroke-linecap: butt; stroke-dashoffset: 0; stroke-linejoin: miter; stroke-miterlimit: 4; fill: rgb(207,140,42); fill-rule: nonzero; opacity: 1;" vector-effect="non-scaling-stroke"  transform=" translate(145.39, -37.64)" d="M 0 0 C 0.66 0.33 1.32 0.66 2 1 C 3.07101864 11.07550873 0.15201564 18.04051487 -5.5703125 26.25390625 C -19.25425758 43.14399305 -42.93701722 51.68707869 -63 58 C -64.134375 58.37511719 -65.26875 58.75023437 -66.4375 59.13671875 C -69.60884605 60.16012506 -72.79306218 61.094337 -76 62 C -76.62519531 62.18240234 -77.25039063 62.36480469 -77.89453125 62.55273438 C -88.99059303 65.74576936 -100.26547851 67.88788905 -111.6418457 69.7925415 C -113.16708804 70.04799867 -114.69171822 70.3071501 -116.21557617 70.57073975 C -140.42474364 74.72326374 -164.8927531 75.34167631 -189.40014648 75.26074219 C -192.87065137 75.24933744 -196.34084961 75.25614789 -199.81134415 75.2676239 C -228.19130715 75.34704792 -257.2578327 74.52756878 -285 68 C -285.02712153 66.083412 -285.04645097 64.1667127 -285.0625 62.25 C -285.07410156 61.18265625 -285.08570313 60.1153125 -285.09765625 59.015625 C -285 56 -285 56 -284 52 C -286.97 51.34 -289.94 50.68 -293 50 C -293 40.1 -293 30.2 -293 20 C -287.39 20 -281.78 20 -276 20 C -276 30.89 -276 41.78 -276 53 C -271.71 53.33 -267.42 53.66 -263 54 C -260.38827283 54.24014323 -257.77735318 54.48951928 -255.16796875 54.75390625 C -253.98227295 54.8732251 -252.79657715 54.99254395 -251.57495117 55.11547852 C -250.12709229 55.26299561 -248.6792334 55.4105127 -247.1875 55.5625 C -242.505625 56.036875 -237.82375 56.51125 -233 57 C -233 47.1 -233 37.2 -233 27 C -227.06 27 -221.12 27 -215 27 C -215 37.56 -215 48.12 -215 59 C -200.81 59 -186.62 59 -172 59 C -172 48.44 -172 37.88 -172 27 C -166.39 27 -160.78 27 -155 27 C -155 36.9 -155 46.8 -155 57 C -145.38327706 56.05922533 -145.38327706 56.05922533 -135.7668457 55.11547852 C -134.54054443 54.99615967 -133.31424316 54.87684082 -132.05078125 54.75390625 C -130.82012939 54.63345947 -129.58947754 54.5130127 -128.3215332 54.38891602 C -122.55247193 53.86972983 -116.77531469 53.44425498 -111 53 C -111 42.11 -111 31.22 -111 20 C -105.39 20 -99.78 20 -94 20 C -94 29.57 -94 39.14 -94 49 C -81.08102629 45.89944631 -68.50073327 42.78121339 -56.0703125 38.1015625 C -53 37 -53 37 -51 37 C -51 25.78 -51 14.56 -51 3 C -45.39 3 -39.78 3 -34 3 C -34 11.58 -34 20.16 -34 29 C -19.92903247 21.27476293 -9.05450853 13.58176279 0 0 Z" stroke-linecap="round" />
</g>
		<g transform="matrix(1 0 0 1 -1.81 -54.59)"  >
<path style="stroke: none; stroke-width: 1; stroke-dasharray: none; stroke-linecap: butt; stroke-dashoffset: 0; stroke-linejoin: miter; stroke-miterlimit: 4; fill: rgb(207,135,40); fill-rule: nonzero; opacity: 1;" vector-effect="non-scaling-stroke"  transform=" translate(-146, -38.41)" d="M 0 0 C 0.56976563 0.72703125 1.13953125 1.4540625 1.7265625 2.203125 C 10.19399218 12.62010034 20.05387409 20.02693704 32 26 C 32.33 17.42 32.66 8.84 33 0 C 38.61 0 44.22 0 50 0 C 50 11.55 50 23.1 50 35 C 56.7643058 37.02929174 63.52701842 39.04529263 70.3125 41 C 71.16005859 41.2475 72.00761719 41.495 72.88085938 41.75 C 79.89217203 43.76673712 86.8604881 45.35242033 94 47 C 94 37.43 94 27.86 94 18 C 99.61 18 105.22 18 111 18 C 111 28.89 111 39.78 111 51 C 113.97 51 116.94 51 120 51 C 121.73794818 51.23371549 123.47020155 51.52007345 125.1875 51.875 C 134.70168363 53.61161761 144.37443393 54.17830534 154 55 C 154 45.1 154 35.2 154 25 C 159.61 25 165.22 25 171 25 C 171 35.56 171 46.12 171 57 C 185.52 57 200.04 57 215 57 C 215 46.44 215 35.88 215 25 C 220.61 25 226.22 25 232 25 C 232 34.9 232 44.8 232 55 C 237.32047373 54.45083925 242.64075735 53.90023769 247.96069336 53.34594727 C 249.76952441 53.15792212 251.5784432 52.97073905 253.38745117 52.78442383 C 255.99161067 52.51606444 258.59543686 52.24465199 261.19921875 51.97265625 C 262.00461594 51.89032242 262.81001312 51.80798859 263.63981628 51.72315979 C 264.4002272 51.64315231 265.16063812 51.56314484 265.9440918 51.48071289 C 266.60805466 51.41187393 267.27201752 51.34303497 267.95610046 51.27210999 C 270.32118203 50.95724015 272.66038427 50.46792315 275 50 C 275 39.44 275 28.88 275 18 C 280.61 18 286.22 18 292 18 C 292 27.9 292 37.8 292 48 C 289.03 48.33 286.06 48.66 283 49 C 283.350625 50.27875 283.70125 51.5575 284.0625 52.875 C 285.35760769 58.68920686 285.23403136 64.4149915 283.28466797 70.078125 C 282 72 282 72 279.76708984 72.71362305 C 278.37804443 72.86118042 278.37804443 72.86118042 276.9609375 73.01171875 C 275.91881104 73.12926514 274.87668457 73.24681152 273.80297852 73.36791992 C 272.67174561 73.47338135 271.5405127 73.57884277 270.375 73.6875 C 269.19929443 73.80778564 268.02358887 73.92807129 266.81225586 74.05200195 C 208.09924722 79.77154378 143.94666789 77.21415295 87 61 C 86.07993164 60.74412109 85.15986328 60.48824219 84.21191406 60.22460938 C 55.66692939 52.20340531 20.09670188 40.88520859 3.7890625 14.00390625 C 1.22366172 9.33706016 0.37852815 5.29939413 0 0 Z" stroke-linecap="round" />
</g>
		<g transform="matrix(1 0 0 1 114.69 -46.42)"  >
<path style="stroke: none; stroke-width: 1; stroke-dasharray: none; stroke-linecap: butt; stroke-dashoffset: 0; stroke-linejoin: miter; stroke-miterlimit: 4; fill: rgb(207,167,49); fill-rule: nonzero; opacity: 1;" vector-effect="non-scaling-stroke"  transform=" translate(12.5, -28.58)" d="M 0 0 C 5.61 0 11.22 0 17 0 C 17 9.9 17 19.8 17 30 C 14.03 30.33 11.06 30.66 8 31 C 8.5259375 32.918125 8.5259375 32.918125 9.0625 34.875 C 10.35755164 40.68895524 10.23250867 46.41218033 8.28686523 52.07592773 C 7 54 7 54 4.7512207 54.72949219 C 3.81882568 54.83422852 2.88643066 54.93896484 1.92578125 55.046875 C 0.35062744 55.23092896 0.35062744 55.23092896 -1.25634766 55.41870117 C -2.38862793 55.52802979 -3.5209082 55.6373584 -4.6875 55.75 C -5.84040527 55.87286377 -6.99331055 55.99572754 -8.18115234 56.12231445 C -19.45719862 57.22803581 -30.68320555 57.3171565 -42 57 C -41.22140625 56.39414063 -40.4428125 55.78828125 -39.640625 55.1640625 C -36.42583558 52.52945697 -33.86681649 49.73363298 -32 46 C -31.86642547 42.32670036 -31.8328432 39.50147041 -33 36 C -32.17798096 35.91435791 -31.35596191 35.82871582 -30.5090332 35.74047852 C -27.44307798 35.41992224 -24.37735361 35.09725987 -21.31176758 34.77319336 C -19.33887397 34.56527943 -17.36572725 34.3597718 -15.39257812 34.15429688 C -14.14541016 34.02216797 -12.89824219 33.89003906 -11.61328125 33.75390625 C -10.46641846 33.63345947 -9.31955566 33.5130127 -8.13793945 33.38891602 C -5.40696391 33.05043908 -2.69843153 32.53968631 0 32 C 0 21.44 0 10.88 0 0 Z" stroke-linecap="round" />
</g>
		<g transform="matrix(1 0 0 1 -216.81 153.5)"  >
<path style="stroke: none; stroke-width: 1; stroke-dasharray: none; stroke-linecap: butt; stroke-dashoffset: 0; stroke-linejoin: miter; stroke-miterlimit: 4; fill: rgb(254,167,50); fill-rule: nonzero; opacity: 1;" vector-effect="non-scaling-stroke"  transform=" translate(-8, -22.5)" d="M 0 0 C 5.28 0 10.56 0 16 0 C 16 4.95 16 9.9 16 15 C 20.95 15 25.9 15 31 15 C 31 19.95 31 24.9 31 30 C 26.05 30 21.1 30 16 30 C 16 34.95 16 39.9 16 45 C 10.72 45 5.44 45 0 45 C 0 40.05 0 35.1 0 30 C -4.95 30 -9.9 30 -15 30 C -15 25.05 -15 20.1 -15 15 C -10.05 15 -5.1 15 0 15 C 0 10.05 0 5.1 0 0 Z" stroke-linecap="round" />
</g>
		<g transform="matrix(1 0 0 1 233.69 1)"  >
<path style="stroke: none; stroke-width: 1; stroke-dasharray: none; stroke-linecap: butt; stroke-dashoffset: 0; stroke-linejoin: miter; stroke-miterlimit: 4; fill: rgb(254,168,50); fill-rule: nonzero; opacity: 1;" vector-effect="non-scaling-stroke"  transform=" translate(-7.5, -23)" d="M 0 0 C 4.95 0 9.9 0 15 0 C 15 4.95 15 9.9 15 15 C 19.95 15 24.9 15 30 15 C 30 20.28 30 25.56 30 31 C 25.05 31 20.1 31 15 31 C 15 35.95 15 40.9 15 46 C 10.05 46 5.1 46 0 46 C 0 41.05 0 36.1 0 31 C -4.95 31 -9.9 31 -15 31 C -15 25.72 -15 20.44 -15 15 C -10.05 15 -5.1 15 0 15 C 0 10.05 0 5.1 0 0 Z" stroke-linecap="round" />
</g>
		<g transform="matrix(1 0 0 1 -216.81 -160.5)"  >
<path style="stroke: none; stroke-width: 1; stroke-dasharray: none; stroke-linecap: butt; stroke-dashoffset: 0; stroke-linejoin: miter; stroke-miterlimit: 4; fill: rgb(254,167,50); fill-rule: nonzero; opacity: 1;" vector-effect="non-scaling-stroke"  transform=" translate(-8, -22.5)" d="M 0 0 C 5.28 0 10.56 0 16 0 C 16 4.95 16 9.9 16 15 C 20.95 15 25.9 15 31 15 C 31 19.95 31 24.9 31 30 C 26.05 30 21.1 30 16 30 C 16 34.95 16 39.9 16 45 C 10.72 45 5.44 45 0 45 C 0 40.05 0 35.1 0 30 C -4.95 30 -9.9 30 -15 30 C -15 25.05 -15 20.1 -15 15 C -10.05 15 -5.1 15 0 15 C 0 10.05 0 5.1 0 0 Z" stroke-linecap="round" />
</g>
		<g transform="matrix(1 0 0 1 196.69 -75.5)"  >
<path style="stroke: none; stroke-width: 1; stroke-dasharray: none; stroke-linecap: butt; stroke-dashoffset: 0; stroke-linejoin: miter; stroke-miterlimit: 4; fill: rgb(202,92,40); fill-rule: nonzero; opacity: 1;" vector-effect="non-scaling-stroke"  transform=" translate(-8.5, -17.5)" d="M 0 0 C 5.61 0 11.22 0 17 0 C 17 9.24 17 18.48 17 28 C 5 34 5 34 0 35 C 0 23.45 0 11.9 0 0 Z" stroke-linecap="round" />
</g>
		<g transform="matrix(1 0 0 1 75.69 224)"  >
<path style="stroke: none; stroke-width: 1; stroke-dasharray: none; stroke-linecap: butt; stroke-dashoffset: 0; stroke-linejoin: miter; stroke-miterlimit: 4; fill: rgb(202,91,40); fill-rule: nonzero; opacity: 1;" vector-effect="non-scaling-stroke"  transform=" translate(-8.5, -16)" d="M 0 0 C 5.61 0 11.22 0 17 0 C 17 10.23 17 20.46 17 31 C 10 32 10 32 0 32 C 0 21.44 0 10.88 0 0 Z" stroke-linecap="round" />
</g>
		<g transform="matrix(1 0 0 1 14.69 224)"  >
<path style="stroke: none; stroke-width: 1; stroke-dasharray: none; stroke-linecap: butt; stroke-dashoffset: 0; stroke-linejoin: miter; stroke-miterlimit: 4; fill: rgb(202,91,40); fill-rule: nonzero; opacity: 1;" vector-effect="non-scaling-stroke"  transform=" translate(-8.5, -16)" d="M 0 0 C 5.61 0 11.22 0 17 0 C 17 10.56 17 21.12 17 32 C 7 32 7 32 0 31 C 0 20.77 0 10.54 0 0 Z" stroke-linecap="round" />
</g>
		<g transform="matrix(1 0 0 1 135.69 217.5)"  >
<path style="stroke: none; stroke-width: 1; stroke-dasharray: none; stroke-linecap: butt; stroke-dashoffset: 0; stroke-linejoin: miter; stroke-miterlimit: 4; fill: rgb(202,91,40); fill-rule: nonzero; opacity: 1;" vector-effect="non-scaling-stroke"  transform=" translate(-8.5, -16.5)" d="M 0 0 C 5.61 0 11.22 0 17 0 C 17 9.9 17 19.8 17 30 C 4 33 4 33 0 33 C 0 22.11 0 11.22 0 0 Z" stroke-linecap="round" />
</g>
		<g transform="matrix(1 0 0 1 -45.31 217.5)"  >
<path style="stroke: none; stroke-width: 1; stroke-dasharray: none; stroke-linecap: butt; stroke-dashoffset: 0; stroke-linejoin: miter; stroke-miterlimit: 4; fill: rgb(201,91,40); fill-rule: nonzero; opacity: 1;" vector-effect="non-scaling-stroke"  transform=" translate(-8.5, -16.5)" d="M 0 0 C 5.61 0 11.22 0 17 0 C 17 10.89 17 21.78 17 33 C 8 32 8 32 0 30 C 0 20.1 0 10.2 0 0 Z" stroke-linecap="round" />
</g>
		<g transform="matrix(1 0 0 1 -29.31 86)"  >
<path style="stroke: none; stroke-width: 1; stroke-dasharray: none; stroke-linecap: butt; stroke-dashoffset: 0; stroke-linejoin: miter; stroke-miterlimit: 4; fill: rgb(201,91,40); fill-rule: nonzero; opacity: 1;" vector-effect="non-scaling-stroke"  transform=" translate(-8.5, -16)" d="M 0 0 C 5.61 0 11.22 0 17 0 C 17 10.23 17 20.46 17 31 C 8.585 31.495 8.585 31.495 0 32 C 0 21.44 0 10.88 0 0 Z" stroke-linecap="round" />
</g>
		<g transform="matrix(1 0 0 1 -150.31 79)"  >
<path style="stroke: none; stroke-width: 1; stroke-dasharray: none; stroke-linecap: butt; stroke-dashoffset: 0; stroke-linejoin: miter; stroke-miterlimit: 4; fill: rgb(201,90,40); fill-rule: nonzero; opacity: 1;" vector-effect="non-scaling-stroke"  transform=" translate(-8.5, -16)" d="M 0 0 C 5.61 0 11.22 0 17 0 C 17 10.56 17 21.12 17 32 C 9 32 9 32 0 30 C 0 20.1 0 10.2 0 0 Z" stroke-linecap="round" />
</g>
		<g transform="matrix(1 0 0 1 135.69 -59)"  >
<path style="stroke: none; stroke-width: 1; stroke-dasharray: none; stroke-linecap: butt; stroke-dashoffset: 0; stroke-linejoin: miter; stroke-miterlimit: 4; fill: rgb(201,91,40); fill-rule: nonzero; opacity: 1;" vector-effect="non-scaling-stroke"  transform=" translate(-8.5, -16)" d="M 0 0 C 5.61 0 11.22 0 17 0 C 17 9.9 17 19.8 17 30 C 8 32 8 32 0 32 C 0 21.44 0 10.88 0 0 Z" stroke-linecap="round" />
</g>
		<g transform="matrix(1 0 0 1 -106.31 201)"  >
<path style="stroke: none; stroke-width: 1; stroke-dasharray: none; stroke-linecap: butt; stroke-dashoffset: 0; stroke-linejoin: miter; stroke-miterlimit: 4; fill: rgb(201,91,40); fill-rule: nonzero; opacity: 1;" vector-effect="non-scaling-stroke"  transform=" translate(-8.5, -17)" d="M 0 0 C 5.61 0 11.22 0 17 0 C 17 11.22 17 22.44 17 34 C 12 33 12 33 0 27 C 0 18.09 0 9.18 0 0 Z" stroke-linecap="round" />
</g>
		<g transform="matrix(1 0 0 1 196.69 200.5)"  >
<path style="stroke: none; stroke-width: 1; stroke-dasharray: none; stroke-linecap: butt; stroke-dashoffset: 0; stroke-linejoin: miter; stroke-miterlimit: 4; fill: rgb(201,91,40); fill-rule: nonzero; opacity: 1;" vector-effect="non-scaling-stroke"  transform=" translate(-8.5, -16.5)" d="M 0 0 C 5.61 0 11.22 0 17 0 C 17 8.91 17 17.82 17 27 C 5 33 5 33 0 33 C 0 22.11 0 11.22 0 0 Z" stroke-linecap="round" />
</g>
		<g transform="matrix(1 0 0 1 91.69 63)"  >
<path style="stroke: none; stroke-width: 1; stroke-dasharray: none; stroke-linecap: butt; stroke-dashoffset: 0; stroke-linejoin: miter; stroke-miterlimit: 4; fill: rgb(201,90,40); fill-rule: nonzero; opacity: 1;" vector-effect="non-scaling-stroke"  transform=" translate(-8.5, -17)" d="M 0 0 C 5.61 0 11.22 0 17 0 C 17 8.91 17 17.82 17 27 C 14.751875 27.969375 12.50375 28.93875 10.1875 29.9375 C 9.48391357 30.24163818 8.78032715 30.54577637 8.05541992 30.85913086 C 5.39005422 32.00482087 2.75369355 33.08210215 0 34 C 0 22.78 0 11.56 0 0 Z" stroke-linecap="round" />
</g>
		<g transform="matrix(1 0 0 1 -210.81 62.5)"  >
<path style="stroke: none; stroke-width: 1; stroke-dasharray: none; stroke-linecap: butt; stroke-dashoffset: 0; stroke-linejoin: miter; stroke-miterlimit: 4; fill: rgb(200,89,40); fill-rule: nonzero; opacity: 1;" vector-effect="non-scaling-stroke"  transform=" translate(-8, -16.5)" d="M 0 0 C 5.28 0 10.56 0 16 0 C 16 10.89 16 21.78 16 33 C 9 32 9 32 0 28 C 0 18.76 0 9.52 0 0 Z" stroke-linecap="round" />
</g>
		<g transform="matrix(1 0 0 1 31.19 79)"  >
<path style="stroke: none; stroke-width: 1; stroke-dasharray: none; stroke-linecap: butt; stroke-dashoffset: 0; stroke-linejoin: miter; stroke-miterlimit: 4; fill: rgb(200,89,40); fill-rule: nonzero; opacity: 1;" vector-effect="non-scaling-stroke"  transform=" translate(-8, -16)" d="M 0 0 C 5.28 0 10.56 0 16 0 C 16 9.57 16 19.14 16 29 C 3 32 3 32 0 32 C 0 21.44 0 10.88 0 0 Z" stroke-linecap="round" />
</g>
		<g transform="matrix(1 0 0 1 -45.81 -59)"  >
<path style="stroke: none; stroke-width: 1; stroke-dasharray: none; stroke-linecap: butt; stroke-dashoffset: 0; stroke-linejoin: miter; stroke-miterlimit: 4; fill: rgb(200,89,40); fill-rule: nonzero; opacity: 1;" vector-effect="non-scaling-stroke"  transform=" translate(-8, -16)" d="M 0 0 C 5.28 0 10.56 0 16 0 C 16 10.56 16 21.12 16 32 C 3 30 3 30 0 29 C 0 19.43 0 9.86 0 0 Z" stroke-linecap="round" />
</g>
		<g transform="matrix(1 0 0 1 -105.81 -75.5)"  >
<path style="stroke: none; stroke-width: 1; stroke-dasharray: none; stroke-linecap: butt; stroke-dashoffset: 0; stroke-linejoin: miter; stroke-miterlimit: 4; fill: rgb(200,89,40); fill-rule: nonzero; opacity: 1;" vector-effect="non-scaling-stroke"  transform=" translate(-8, -16.5)" d="M 0 0 C 5.28 0 10.56 0 16 0 C 16 10.89 16 21.78 16 33 C 6 30 6 30 0 27 C 0 18.09 0 9.18 0 0 Z" stroke-linecap="round" />
</g>
		<g transform="matrix(1 0 0 1 -89.81 86)"  >
<path style="stroke: none; stroke-width: 1; stroke-dasharray: none; stroke-linecap: butt; stroke-dashoffset: 0; stroke-linejoin: miter; stroke-miterlimit: 4; fill: rgb(200,89,40); fill-rule: nonzero; opacity: 1;" vector-effect="non-scaling-stroke"  transform=" translate(-8, -15)" d="M 0 0 C 5.28 0 10.56 0 16 0 C 16 9.9 16 19.8 16 30 C 10.72 30 5.44 30 0 30 C 0 20.1 0 10.2 0 0 Z" stroke-linecap="round" />
</g>
		<g transform="matrix(1 0 0 1 15.19 -52)"  >
<path style="stroke: none; stroke-width: 1; stroke-dasharray: none; stroke-linecap: butt; stroke-dashoffset: 0; stroke-linejoin: miter; stroke-miterlimit: 4; fill: rgb(200,89,40); fill-rule: nonzero; opacity: 1;" vector-effect="non-scaling-stroke"  transform=" translate(-8, -15)" d="M 0 0 C 5.28 0 10.56 0 16 0 C 16 9.9 16 19.8 16 30 C 10.72 30 5.44 30 0 30 C 0 20.1 0 10.2 0 0 Z" stroke-linecap="round" />
</g>
		<g transform="matrix(1 0 0 1 75.19 -52)"  >
<path style="stroke: none; stroke-width: 1; stroke-dasharray: none; stroke-linecap: butt; stroke-dashoffset: 0; stroke-linejoin: miter; stroke-miterlimit: 4; fill: rgb(200,89,40); fill-rule: nonzero; opacity: 1;" vector-effect="non-scaling-stroke"  transform=" translate(-8, -15)" d="M 0 0 C 5.28 0 10.56 0 16 0 C 16 9.57 16 19.14 16 29 C 9 30 9 30 0 30 C 0 20.1 0 10.2 0 0 Z" stroke-linecap="round" />
</g>
		<g transform="matrix(1 0 0 1 119.3 59)"  >
<path style="stroke: none; stroke-width: 1; stroke-dasharray: none; stroke-linecap: butt; stroke-dashoffset: 0; stroke-linejoin: miter; stroke-miterlimit: 4; fill: rgb(207,166,49); fill-rule: nonzero; opacity: 1;" vector-effect="non-scaling-stroke"  transform=" translate(14.89, -16)" d="M 0 0 C 0.66 0.33 1.32 0.66 2 1 C 3.07508821 11.11379274 0.22726071 18.52396767 -5.95703125 26.53515625 C -7.5871651 28.41761224 -9.24481003 30.23442429 -11 32 C -12.2375 31.690625 -13.475 31.38125 -14.75 31.0625 C -20.45164503 29.78031188 -26.17873504 29.37429453 -32 29 C -28.71599163 26.28301466 -25.39859772 23.94769336 -21.75 21.75 C -12.44319816 15.85819399 -5.91962097 9.28866571 0 0 Z" stroke-linecap="round" />
</g>
		<g transform="matrix(1 0 0 1 -131.81 -78.93)"  >
<path style="stroke: none; stroke-width: 1; stroke-dasharray: none; stroke-linecap: butt; stroke-dashoffset: 0; stroke-linejoin: miter; stroke-miterlimit: 4; fill: rgb(208,167,49); fill-rule: nonzero; opacity: 1;" vector-effect="non-scaling-stroke"  transform=" translate(-16, -14.07)" d="M 0 0 C 0.56976563 0.72703125 1.13953125 1.4540625 1.7265625 2.203125 C 8.45909796 10.48576313 15.84718669 16.58976454 24.8984375 22.08984375 C 27.38717274 23.62257868 29.70521592 25.19695537 32 27 C 29.43786831 27.27698721 26.87907631 27.52215772 24.3125 27.75 C 23.59126953 27.83121094 22.87003906 27.91242188 22.12695312 27.99609375 C 18.42208805 28.30060321 16.36664104 28.22687181 13.171875 26.25 C 5.80080469 18.61378328 0.76433146 10.70064047 0 0 Z" stroke-linecap="round" />
</g>
</g>
</g>
</svg>